<svg xmlns="http://www.w3.org/2000/svg" xmlns:xlink="http://www.w3.org/1999/xlink" viewBox="0 0 1134.62 710.38"><defs><style>.cls-1{isolation:isolate;}.cls-2{fill:#ebeff2;}.cls-3,.cls-32{fill:#d8dee8;}.cls-102,.cls-103,.cls-135,.cls-150,.cls-32,.cls-4,.cls-58,.cls-66,.cls-7,.cls-95{opacity:0.3;}.cls-102,.cls-103,.cls-106,.cls-135,.cls-150,.cls-32,.cls-4,.cls-58,.cls-66,.cls-7,.cls-8,.cls-95{mix-blend-mode:multiply;}.cls-4{fill:url(#linear-gradient);}.cls-5,.cls-6,.cls-9{opacity:0.24;}.cls-5{fill:url(#linear-gradient-2);}.cls-6{fill:url(#linear-gradient-3);}.cls-7{fill:url(#linear-gradient-4);}.cls-8{opacity:0.53;fill:url(#linear-gradient-5);}.cls-9{fill:url(#linear-gradient-6);}.cls-10{fill:url(#linear-gradient-7);}.cls-11,.cls-15,.cls-31,.cls-34,.cls-35,.cls-56,.cls-60{fill:#fff;}.cls-11{opacity:0.16;mix-blend-mode:screen;}.cls-12{fill:url(#linear-gradient-8);}.cls-13{fill:url(#linear-gradient-9);}.cls-14{fill:url(#linear-gradient-10);}.cls-15{opacity:0.74;}.cls-16{fill:url(#linear-gradient-11);}.cls-17{fill:url(#linear-gradient-12);}.cls-18{fill:url(#linear-gradient-13);}.cls-19{fill:url(#linear-gradient-14);}.cls-20,.cls-21,.cls-23,.cls-24{opacity:0.25;}.cls-20{fill:url(#linear-gradient-15);}.cls-21{fill:url(#linear-gradient-16);}.cls-22{fill:url(#linear-gradient-17);}.cls-23{fill:url(#linear-gradient-18);}.cls-24{fill:url(#linear-gradient-19);}.cls-25{fill:url(#linear-gradient-20);}.cls-26{fill:url(#linear-gradient-21);}.cls-27{fill:url(#linear-gradient-22);}.cls-28{fill:url(#linear-gradient-23);}.cls-29{fill:#97a6b7;}.cls-30{fill:url(#linear-gradient-24);}.cls-33{fill:url(#linear-gradient-25);}.cls-34{opacity:0.6;}.cls-118,.cls-34,.cls-35,.cls-56{mix-blend-mode:soft-light;}.cls-35{opacity:0.36;}.cls-36{fill:url(#linear-gradient-26);}.cls-37,.cls-38,.cls-39,.cls-41,.cls-42,.cls-43,.cls-44,.cls-46,.cls-47,.cls-48,.cls-49,.cls-50,.cls-52,.cls-53,.cls-54{opacity:0.5;}.cls-37{fill:url(#linear-gradient-27);}.cls-38{fill:url(#linear-gradient-28);}.cls-39{fill:url(#linear-gradient-29);}.cls-40{fill:url(#linear-gradient-30);}.cls-41{fill:url(#linear-gradient-31);}.cls-42{fill:url(#linear-gradient-32);}.cls-43{fill:url(#linear-gradient-33);}.cls-44{fill:url(#linear-gradient-34);}.cls-45{fill:url(#linear-gradient-35);}.cls-46{fill:url(#linear-gradient-36);}.cls-47{fill:url(#linear-gradient-37);}.cls-48{fill:url(#linear-gradient-38);}.cls-49{fill:url(#linear-gradient-39);}.cls-50{fill:url(#linear-gradient-40);}.cls-51{fill:url(#linear-gradient-41);}.cls-52{fill:url(#linear-gradient-42);}.cls-53{fill:url(#linear-gradient-43);}.cls-54{fill:url(#linear-gradient-44);}.cls-55{fill:url(#linear-gradient-45);}.cls-57{fill:url(#linear-gradient-46);}.cls-59{fill:url(#linear-gradient-47);}.cls-60{opacity:0.68;}.cls-61{fill:url(#linear-gradient-48);}.cls-62{fill:url(#linear-gradient-49);}.cls-63{fill:url(#linear-gradient-50);}.cls-64{fill:url(#linear-gradient-51);}.cls-65{fill:url(#linear-gradient-52);}.cls-66{fill:url(#linear-gradient-53);}.cls-67{fill:#999;}.cls-68{fill:#c2c2c2;}.cls-69{opacity:0.57;fill:url(#linear-gradient-54);}.cls-70,.cls-71,.cls-72,.cls-73,.cls-74{opacity:0.7;}.cls-70{fill:url(#linear-gradient-55);}.cls-71{fill:url(#linear-gradient-56);}.cls-72{fill:url(#linear-gradient-57);}.cls-73{fill:url(#linear-gradient-58);}.cls-74{fill:url(#linear-gradient-59);}.cls-75{fill:url(#linear-gradient-60);}.cls-76{fill:url(#linear-gradient-61);}.cls-77{fill:url(#linear-gradient-62);}.cls-78{fill:url(#linear-gradient-63);}.cls-79{fill:url(#linear-gradient-64);}.cls-80{fill:url(#linear-gradient-65);}.cls-81{fill:url(#linear-gradient-66);}.cls-82{fill:url(#linear-gradient-67);}.cls-83{fill:url(#linear-gradient-68);}.cls-84{fill:url(#linear-gradient-69);}.cls-85{fill:url(#linear-gradient-70);}.cls-86{fill:#26264f;}.cls-87{fill:url(#linear-gradient-71);}.cls-88{fill:#9b305e;}.cls-89{fill:url(#linear-gradient-72);}.cls-90{fill:url(#linear-gradient-73);}.cls-91{fill:url(#linear-gradient-74);}.cls-92{fill:url(#linear-gradient-75);}.cls-93{fill:url(#linear-gradient-76);}.cls-94{fill:url(#linear-gradient-77);}.cls-95{fill:url(#linear-gradient-78);}.cls-96{fill:url(#linear-gradient-79);}.cls-97{fill:url(#linear-gradient-80);}.cls-98{fill:url(#linear-gradient-81);}.cls-99{fill:url(#linear-gradient-82);}.cls-100{fill:url(#linear-gradient-83);}.cls-101{fill:url(#linear-gradient-84);}.cls-102{fill:url(#linear-gradient-85);}.cls-103{fill:url(#linear-gradient-86);}.cls-104{fill:url(#linear-gradient-87);}.cls-105{fill:url(#linear-gradient-88);}.cls-106{fill:url(#linear-gradient-89);}.cls-107{fill:url(#linear-gradient-90);}.cls-108{fill:url(#linear-gradient-91);}.cls-109{fill:url(#linear-gradient-92);}.cls-110{fill:url(#linear-gradient-93);}.cls-111{fill:url(#linear-gradient-94);}.cls-112{fill:url(#linear-gradient-95);}.cls-113{fill:url(#linear-gradient-96);}.cls-114{fill:url(#linear-gradient-97);}.cls-115{fill:url(#linear-gradient-98);}.cls-116{fill:url(#linear-gradient-99);}.cls-117{fill:url(#linear-gradient-100);}.cls-118{opacity:0.49;}.cls-119{fill:url(#linear-gradient-101);}.cls-120{fill:url(#linear-gradient-102);}.cls-121{fill:url(#linear-gradient-103);}.cls-122{fill:url(#linear-gradient-104);}.cls-123{fill:url(#linear-gradient-105);}.cls-124{fill:url(#linear-gradient-106);}.cls-125{fill:#444b8c;}.cls-126{fill:url(#linear-gradient-107);}.cls-127{fill:url(#linear-gradient-108);}.cls-128{fill:url(#linear-gradient-109);}.cls-129{fill:url(#linear-gradient-110);}.cls-130{fill:url(#linear-gradient-111);}.cls-131{fill:url(#linear-gradient-112);}.cls-132{fill:url(#linear-gradient-113);}.cls-133{fill:url(#linear-gradient-114);}.cls-134{fill:url(#linear-gradient-115);}.cls-135{fill:url(#linear-gradient-116);}.cls-136{fill:url(#linear-gradient-117);}.cls-137{fill:url(#linear-gradient-118);}.cls-138{fill:url(#linear-gradient-119);}.cls-139{fill:url(#linear-gradient-120);}.cls-140{fill:url(#linear-gradient-121);}.cls-141{fill:url(#linear-gradient-122);}.cls-142{fill:url(#linear-gradient-123);}.cls-143{fill:url(#linear-gradient-124);}.cls-144{fill:url(#linear-gradient-125);}.cls-145{fill:url(#linear-gradient-126);}.cls-146{fill:url(#linear-gradient-127);}.cls-147{fill:url(#linear-gradient-128);}.cls-148{fill:url(#linear-gradient-129);}.cls-149{fill:url(#linear-gradient-130);}.cls-150{fill:url(#linear-gradient-131);}.cls-151{fill:url(#linear-gradient-132);}</style><linearGradient id="linear-gradient" x1="605.95" y1="273.07" x2="216.48" y2="747.2" gradientUnits="userSpaceOnUse"><stop offset="0" stop-color="#ff9085"/><stop offset="1" stop-color="#fb6fbb"/></linearGradient><linearGradient id="linear-gradient-2" x1="412.73" y1="183.62" x2="118.01" y2="542.4" gradientUnits="userSpaceOnUse"><stop offset="0" stop-color="#aa80f9"/><stop offset="1" stop-color="#6165d7"/></linearGradient><linearGradient id="linear-gradient-3" x1="933.24" y1="79.65" x2="640.47" y2="436.06" xlink:href="#linear-gradient-2"/><linearGradient id="linear-gradient-4" x1="906.17" y1="17.74" x2="699.57" y2="269.25" xlink:href="#linear-gradient"/><linearGradient id="linear-gradient-5" x1="900.16" y1="220.34" x2="659.11" y2="513.8" xlink:href="#linear-gradient"/><linearGradient id="linear-gradient-6" x1="1050.72" y1="349.22" x2="944.31" y2="478.77" xlink:href="#linear-gradient-2"/><linearGradient id="linear-gradient-7" x1="-11833.03" y1="403.28" x2="-11562.43" y2="403.28" gradientTransform="matrix(-1, 0, 0, 1, -10750.85, 0)" gradientUnits="userSpaceOnUse"><stop offset="0" stop-color="#e38ddd"/><stop offset="1" stop-color="#9571f6"/></linearGradient><linearGradient id="linear-gradient-8" x1="-11615.31" y1="445.29" x2="-11665.82" y2="715.57" xlink:href="#linear-gradient-7"/><linearGradient id="linear-gradient-9" x1="206.95" y1="275.71" x2="56.85" y2="184.77" xlink:href="#linear-gradient"/><linearGradient id="linear-gradient-10" x1="260.06" y1="39.99" x2="221.26" y2="265.51" xlink:href="#linear-gradient"/><linearGradient id="linear-gradient-11" x1="141.67" y1="-9.11" x2="191.95" y2="246.39" gradientUnits="userSpaceOnUse"><stop offset="0" stop-color="#ffc444"/><stop offset="1" stop-color="#f36f56"/></linearGradient><linearGradient id="linear-gradient-12" x1="300.68" y1="-32.04" x2="349.84" y2="217.77" xlink:href="#linear-gradient-11"/><linearGradient id="linear-gradient-13" x1="170.85" y1="-12.52" x2="219.94" y2="236.95" xlink:href="#linear-gradient-11"/><linearGradient id="linear-gradient-14" x1="126.74" y1="-8.62" x2="177.55" y2="249.58" xlink:href="#linear-gradient-11"/><linearGradient id="linear-gradient-15" x1="310.62" y1="-32.36" x2="359.14" y2="214.23" xlink:href="#linear-gradient-11"/><linearGradient id="linear-gradient-16" x1="282.35" y1="-26.18" x2="330.6" y2="219.03" xlink:href="#linear-gradient-11"/><linearGradient id="linear-gradient-17" x1="316.5" y1="-33" x2="365.1" y2="214.01" xlink:href="#linear-gradient-11"/><linearGradient id="linear-gradient-18" x1="178.94" y1="-15.27" x2="229.04" y2="239.31" xlink:href="#linear-gradient-11"/><linearGradient id="linear-gradient-19" x1="234.22" y1="-18.07" x2="282.69" y2="228.28" xlink:href="#linear-gradient-11"/><linearGradient id="linear-gradient-20" x1="217.7" y1="-19.69" x2="266.11" y2="226.32" xlink:href="#linear-gradient-11"/><linearGradient id="linear-gradient-21" x1="138.48" y1="-9.73" x2="189.23" y2="248.2" xlink:href="#linear-gradient-11"/><linearGradient id="linear-gradient-22" x1="266.4" y1="-29.1" x2="317.62" y2="231.21" xlink:href="#linear-gradient-11"/><linearGradient id="linear-gradient-23" x1="109" y1="143.28" x2="90.32" y2="251.84" xlink:href="#linear-gradient-11"/><linearGradient id="linear-gradient-24" x1="584.11" y1="507.53" x2="584.11" y2="574.49" gradientUnits="userSpaceOnUse"><stop offset="0.49" stop-color="#ebeff2"/><stop offset="1" stop-color="#fff"/></linearGradient><linearGradient id="linear-gradient-25" x1="400.58" y1="22.68" x2="685.23" y2="544.76" gradientUnits="userSpaceOnUse"><stop offset="0" stop-color="#444b8c"/><stop offset="1" stop-color="#26264f"/></linearGradient><linearGradient id="linear-gradient-26" x1="552.37" y1="70.38" x2="603.47" y2="381.83" gradientTransform="matrix(1, 0, 0, 1, 0, 0)" xlink:href="#linear-gradient-7"/><linearGradient id="linear-gradient-27" x1="525.79" y1="161.14" x2="645.6" y2="161.14" xlink:href="#linear-gradient"/><linearGradient id="linear-gradient-28" x1="525.79" y1="172.93" x2="645.6" y2="172.93" xlink:href="#linear-gradient"/><linearGradient id="linear-gradient-29" x1="504.74" y1="207.81" x2="589.87" y2="207.81" xlink:href="#linear-gradient"/><linearGradient id="linear-gradient-30" x1="553.46" y1="70.57" x2="600.21" y2="355.54" gradientTransform="matrix(1, 0, 0, 1, 0, 0)" xlink:href="#linear-gradient-7"/><linearGradient id="linear-gradient-31" x1="476.91" y1="135.49" x2="561.98" y2="135.49" xlink:href="#linear-gradient"/><linearGradient id="linear-gradient-32" x1="525.79" y1="397.2" x2="645.6" y2="397.2" xlink:href="#linear-gradient"/><linearGradient id="linear-gradient-33" x1="525.79" y1="409" x2="645.6" y2="409" xlink:href="#linear-gradient"/><linearGradient id="linear-gradient-34" x1="580.52" y1="418.77" x2="697.23" y2="418.77" xlink:href="#linear-gradient"/><linearGradient id="linear-gradient-35" x1="589.79" y1="131.21" x2="626.31" y2="353.8" gradientTransform="matrix(1, 0, 0, 1, 0, 0)" xlink:href="#linear-gradient-7"/><linearGradient id="linear-gradient-36" x1="476.91" y1="375.35" x2="561.98" y2="375.35" xlink:href="#linear-gradient"/><linearGradient id="linear-gradient-37" x1="504.74" y1="255.46" x2="625.76" y2="255.46" xlink:href="#linear-gradient"/><linearGradient id="linear-gradient-38" x1="525.79" y1="279.23" x2="645.6" y2="279.23" xlink:href="#linear-gradient"/><linearGradient id="linear-gradient-39" x1="525.79" y1="291.03" x2="645.6" y2="291.03" xlink:href="#linear-gradient"/><linearGradient id="linear-gradient-40" x1="477.12" y1="303.45" x2="553.9" y2="303.45" xlink:href="#linear-gradient"/><linearGradient id="linear-gradient-41" x1="541.05" y1="89.43" x2="583.49" y2="348.11" gradientTransform="matrix(1, 0, 0, 1, 0, 0)" xlink:href="#linear-gradient-7"/><linearGradient id="linear-gradient-42" x1="525.79" y1="338.31" x2="634.1" y2="338.31" xlink:href="#linear-gradient"/><linearGradient id="linear-gradient-43" x1="551.1" y1="349.61" x2="658.11" y2="349.61" xlink:href="#linear-gradient"/><linearGradient id="linear-gradient-44" x1="551.1" y1="361.36" x2="658.11" y2="361.36" xlink:href="#linear-gradient"/><linearGradient id="linear-gradient-45" x1="492.34" y1="78.29" x2="539.37" y2="364.96" gradientTransform="matrix(1, 0, 0, 1, 0, 0)" xlink:href="#linear-gradient-7"/><linearGradient id="linear-gradient-46" x1="587.46" y1="112.25" x2="857.58" y2="607.68" xlink:href="#linear-gradient-11"/><linearGradient id="linear-gradient-47" x1="545.37" y1="297.43" x2="858.6" y2="297.43" xlink:href="#linear-gradient-11"/><linearGradient id="linear-gradient-48" x1="609.18" y1="262.13" x2="672.74" y2="422.8" xlink:href="#linear-gradient"/><linearGradient id="linear-gradient-49" x1="779.86" y1="296.44" x2="636.13" y2="521.39" xlink:href="#linear-gradient-2"/><linearGradient id="linear-gradient-50" x1="772.23" y1="408.11" x2="697.04" y2="525.78" xlink:href="#linear-gradient-25"/><linearGradient id="linear-gradient-51" x1="781.4" y1="296.98" x2="689.09" y2="474.62" xlink:href="#linear-gradient-25"/><linearGradient id="linear-gradient-52" x1="696.33" y1="366.71" x2="694.01" y2="593.83" xlink:href="#linear-gradient-2"/><linearGradient id="linear-gradient-53" x1="752.4" y1="339.42" x2="644.26" y2="508.65" xlink:href="#linear-gradient-2"/><linearGradient id="linear-gradient-54" x1="279.18" y1="226.13" x2="426.27" y2="226.13" xlink:href="#linear-gradient-11"/><linearGradient id="linear-gradient-55" x1="361.88" y1="190.4" x2="327.02" y2="298.86" xlink:href="#linear-gradient"/><linearGradient id="linear-gradient-56" x1="370.5" y1="192.49" x2="335.08" y2="302.71" xlink:href="#linear-gradient"/><linearGradient id="linear-gradient-57" x1="385.35" y1="196.62" x2="349.51" y2="308.11" xlink:href="#linear-gradient"/><linearGradient id="linear-gradient-58" x1="394.9" y1="199.14" x2="358.49" y2="312.41" xlink:href="#linear-gradient"/><linearGradient id="linear-gradient-59" x1="410.78" y1="203.57" x2="373.97" y2="318.07" xlink:href="#linear-gradient"/><linearGradient id="linear-gradient-60" x1="-9621.95" y1="245.87" x2="-9605.56" y2="266.49" gradientTransform="matrix(-1, 0, 0, 1, -9282.75, 0)" xlink:href="#linear-gradient-11"/><linearGradient id="linear-gradient-61" x1="-9550.14" y1="278.03" x2="-9538.99" y2="233.39" gradientTransform="matrix(-1, 0, 0, 1, -9282.75, 0)" xlink:href="#linear-gradient-11"/><linearGradient id="linear-gradient-62" x1="-9633.58" y1="-389.01" x2="-9628.29" y2="-384.3" gradientTransform="matrix(-0.99, -0.14, -0.14, 0.99, -9336.89, -582.08)" xlink:href="#linear-gradient-25"/><linearGradient id="linear-gradient-63" x1="-10553.75" y1="-384.32" x2="-10553.75" y2="-393.54" gradientTransform="matrix(-0.99, -0.14, -0.14, 0.99, -10253.1, -711.59)" xlink:href="#linear-gradient-11"/><linearGradient id="linear-gradient-64" x1="-9633.05" y1="-389.61" x2="-9627.76" y2="-384.9" gradientTransform="matrix(-0.99, -0.14, -0.14, 0.99, -9336.89, -582.08)" xlink:href="#linear-gradient-25"/><linearGradient id="linear-gradient-65" x1="-9576.96" y1="384.35" x2="-9571.66" y2="389.06" gradientTransform="matrix(-1, 0, 0, 1, -9282.75, 0)" xlink:href="#linear-gradient-25"/><linearGradient id="linear-gradient-66" x1="-10497.17" y1="389.07" x2="-10497.17" y2="379.85" gradientTransform="matrix(-1, 0, 0, 1, -10208.06, 0)" xlink:href="#linear-gradient-11"/><linearGradient id="linear-gradient-67" x1="311.86" y1="340.29" x2="242.92" y2="323.28" xlink:href="#linear-gradient"/><linearGradient id="linear-gradient-68" x1="-9525.7" y1="285.49" x2="-9599.79" y2="233.96" gradientTransform="matrix(-1, 0, 0, 1, -9282.75, 0)" xlink:href="#linear-gradient-11"/><linearGradient id="linear-gradient-69" x1="-9576.42" y1="383.75" x2="-9571.13" y2="388.46" gradientTransform="matrix(-1, 0, 0, 1, -9282.75, 0)" xlink:href="#linear-gradient-25"/><linearGradient id="linear-gradient-70" x1="275.3" y1="233.78" x2="286.31" y2="212.27" xlink:href="#linear-gradient-11"/><linearGradient id="linear-gradient-71" x1="-9570.54" y1="215.44" x2="-9541.87" y2="251.5" gradientTransform="matrix(-1, 0, 0, 1, -9282.75, 0)" xlink:href="#linear-gradient-11"/><linearGradient id="linear-gradient-72" x1="-9526.47" y1="294.23" x2="-9609.89" y2="236.22" gradientTransform="matrix(-1, 0, 0, 1, -9282.75, 0)" xlink:href="#linear-gradient-11"/><linearGradient id="linear-gradient-73" x1="-10084.74" y1="1207.34" x2="-10082.33" y2="1238.02" gradientTransform="matrix(-1, 0.09, 0.09, 1, -9893.4, 322.01)" gradientUnits="userSpaceOnUse"><stop offset="0" stop-color="#311944"/><stop offset="1" stop-color="#a03976"/></linearGradient><linearGradient id="linear-gradient-74" x1="-10078.52" y1="1224.42" x2="-10078.96" y2="1192.64" gradientTransform="matrix(-1, 0.09, 0.09, 1, -9893.4, 322.01)" xlink:href="#linear-gradient-11"/><linearGradient id="linear-gradient-75" x1="-10039.18" y1="1203.76" x2="-10036.77" y2="1234.44" xlink:href="#linear-gradient-73"/><linearGradient id="linear-gradient-76" x1="-10036.77" y1="1223.84" x2="-10037.2" y2="1192.06" gradientTransform="matrix(-1, 0.09, 0.09, 1, -9893.4, 322.01)" xlink:href="#linear-gradient-11"/><linearGradient id="linear-gradient-77" x1="-10086.11" y1="1172.94" x2="-10062.61" y2="1172.94" gradientTransform="matrix(-1, 0.09, 0.09, 1, -9893.4, 322.01)" xlink:href="#linear-gradient-2"/><linearGradient id="linear-gradient-78" x1="-10086.11" y1="1172.94" x2="-10062.61" y2="1172.94" gradientTransform="matrix(-1, 0.09, 0.09, 1, -9893.4, 322.01)" xlink:href="#linear-gradient-2"/><linearGradient id="linear-gradient-79" x1="-10079.58" y1="1170.62" x2="-10032.28" y2="1170.62" gradientTransform="matrix(-1, 0.09, 0.09, 1, -9893.4, 322.01)" xlink:href="#linear-gradient-2"/><linearGradient id="linear-gradient-80" x1="239.88" y1="528.92" x2="211.11" y2="608.42" xlink:href="#linear-gradient-11"/><linearGradient id="linear-gradient-81" x1="205.29" y1="516.4" x2="176.52" y2="595.9" xlink:href="#linear-gradient-11"/><linearGradient id="linear-gradient-82" x1="-5481.25" y1="3561.72" x2="-5481.25" y2="3542.74" gradientTransform="matrix(-0.81, 0.59, 0.59, 0.81, -6308.29, 904.15)" xlink:href="#linear-gradient-11"/><linearGradient id="linear-gradient-83" x1="-8941.55" y1="2160.52" x2="-8949.62" y2="2140.05" gradientTransform="matrix(-0.99, 0.14, 0.14, 0.99, -8941.02, -401.34)" gradientUnits="userSpaceOnUse"><stop offset="0" stop-color="#444b8c"/><stop offset="1" stop-color="#3e4177"/></linearGradient><linearGradient id="linear-gradient-84" x1="-5494.67" y1="3556.25" x2="-5485.8" y2="3538.99" gradientTransform="matrix(-0.81, 0.59, 0.59, 0.81, -6308.29, 904.15)" xlink:href="#linear-gradient-11"/><linearGradient id="linear-gradient-85" x1="-1850.98" y1="2739.4" x2="-1781.66" y2="2739.4" gradientTransform="translate(888.56 -2641.87) rotate(-21.67)" xlink:href="#linear-gradient-11"/><linearGradient id="linear-gradient-86" x1="-1783.83" y1="2741.79" x2="-1751.85" y2="2741.79" gradientTransform="translate(888.56 -2641.87) rotate(-21.67)" xlink:href="#linear-gradient-11"/><linearGradient id="linear-gradient-87" x1="-4170.04" y1="3609.27" x2="-4168.15" y2="3598.55" gradientTransform="matrix(0.81, -0.59, 0.59, 0.81, 1430.91, -4776.61)" xlink:href="#linear-gradient-11"/><linearGradient id="linear-gradient-88" x1="279.83" y1="543.56" x2="278.64" y2="596.37" xlink:href="#linear-gradient-11"/><linearGradient id="linear-gradient-89" x1="406.55" y1="497.8" x2="367.9" y2="691.03" xlink:href="#linear-gradient-2"/><linearGradient id="linear-gradient-90" x1="330.07" y1="504.11" x2="468.39" y2="504.11" gradientUnits="userSpaceOnUse"><stop offset="0" stop-color="#d8dee8"/><stop offset="0.49" stop-color="#ebeff2"/><stop offset="1" stop-color="#fff"/></linearGradient><linearGradient id="linear-gradient-91" x1="335.79" y1="467.24" x2="366.46" y2="467.24" gradientUnits="userSpaceOnUse"><stop offset="0" stop-color="#311944"/><stop offset="1" stop-color="#893976"/></linearGradient><linearGradient id="linear-gradient-92" x1="463.22" y1="448.86" x2="434.53" y2="459.69" xlink:href="#linear-gradient-91"/><linearGradient id="linear-gradient-93" x1="330.38" y1="505.41" x2="358.01" y2="492.09" xlink:href="#linear-gradient-91"/><linearGradient id="linear-gradient-94" x1="349.92" y1="545.78" x2="364.51" y2="518.8" xlink:href="#linear-gradient-91"/><linearGradient id="linear-gradient-95" x1="371.92" y1="3276.44" x2="345.45" y2="3260.96" gradientTransform="matrix(0.85, -0.53, 0.53, 0.85, -1565.74, -2112.46)" xlink:href="#linear-gradient-91"/><linearGradient id="linear-gradient-96" x1="460.93" y1="533.01" x2="438.14" y2="512.47" xlink:href="#linear-gradient-91"/><linearGradient id="linear-gradient-97" x1="402.13" y1="457.41" x2="401.22" y2="547.67" xlink:href="#linear-gradient-91"/><linearGradient id="linear-gradient-98" x1="416.4" y1="395.21" x2="409.14" y2="429.68" xlink:href="#linear-gradient-11"/><linearGradient id="linear-gradient-99" x1="394.82" y1="495.56" x2="445.62" y2="519.15" xlink:href="#linear-gradient-11"/><linearGradient id="linear-gradient-100" x1="376.61" y1="457.16" x2="375.7" y2="547.42" xlink:href="#linear-gradient-11"/><linearGradient id="linear-gradient-101" x1="435.53" y1="449.76" x2="437.31" y2="288.68" xlink:href="#linear-gradient-11"/><linearGradient id="linear-gradient-102" x1="365.09" y1="448.98" x2="366.87" y2="287.9" xlink:href="#linear-gradient-11"/><linearGradient id="linear-gradient-103" x1="330.07" y1="504.3" x2="468.39" y2="504.3" xlink:href="#linear-gradient-90"/><linearGradient id="linear-gradient-104" x1="570.63" y1="520.16" x2="571.95" y2="538.3" gradientTransform="matrix(1, -0.01, 0.01, 1, -30.54, -49.98)" xlink:href="#linear-gradient-91"/><linearGradient id="linear-gradient-105" x1="557.89" y1="439.27" x2="559.55" y2="462.08" xlink:href="#linear-gradient-91"/><linearGradient id="linear-gradient-106" x1="656.26" y1="613.56" x2="660.88" y2="642.68" xlink:href="#linear-gradient-91"/><linearGradient id="linear-gradient-107" x1="626.62" y1="573.46" x2="666.43" y2="573.46" xlink:href="#linear-gradient-25"/><linearGradient id="linear-gradient-108" x1="626.62" y1="573.46" x2="662.65" y2="573.46" xlink:href="#linear-gradient-25"/><linearGradient id="linear-gradient-109" x1="639.84" y1="613.59" x2="645.34" y2="648.28" xlink:href="#linear-gradient-91"/><linearGradient id="linear-gradient-110" x1="613.96" y1="573.9" x2="648.09" y2="573.9" xlink:href="#linear-gradient-25"/><linearGradient id="linear-gradient-111" x1="1210.47" y1="2487.67" x2="1218.25" y2="2594.68" gradientTransform="matrix(0.95, -0.31, 0.31, 0.95, -1326.96, -1539.11)" xlink:href="#linear-gradient-2"/><linearGradient id="linear-gradient-112" x1="601.17" y1="455.38" x2="608.95" y2="562.38" xlink:href="#linear-gradient-2"/><linearGradient id="linear-gradient-113" x1="597.77" y1="478.88" x2="599.44" y2="491.99" xlink:href="#linear-gradient-91"/><linearGradient id="linear-gradient-114" x1="-8849.79" y1="476.69" x2="-8851.18" y2="459.98" gradientTransform="matrix(-1, 0, 0, 1, -8254.32, 0)" gradientUnits="userSpaceOnUse"><stop offset="0" stop-color="#26264f"/><stop offset="1" stop-color="#444b8c"/></linearGradient><linearGradient id="linear-gradient-115" x1="-8858.45" y1="465.83" x2="-8845.57" y2="479.41" gradientTransform="matrix(-1, 0, 0, 1, -8254.32, 0)" xlink:href="#linear-gradient-91"/><linearGradient id="linear-gradient-116" x1="551.17" y1="519.25" x2="660.56" y2="519.25" xlink:href="#linear-gradient-2"/><linearGradient id="linear-gradient-117" x1="845.27" y1="468.27" x2="854.97" y2="468.27" xlink:href="#linear-gradient-11"/><linearGradient id="linear-gradient-118" x1="875.95" y1="450" x2="878.96" y2="505.21" xlink:href="#linear-gradient-11"/><linearGradient id="linear-gradient-119" x1="536.49" y1="356.52" x2="851.14" y2="356.52" xlink:href="#linear-gradient-25"/><linearGradient id="linear-gradient-120" x1="831.62" y1="646.21" x2="834.63" y2="625.37" xlink:href="#linear-gradient-25"/><linearGradient id="linear-gradient-121" x1="838.82" y1="634.72" x2="850.37" y2="582.61" xlink:href="#linear-gradient-11"/><linearGradient id="linear-gradient-122" x1="895.4" y1="586.57" x2="837.38" y2="601.78" xlink:href="#linear-gradient-25"/><linearGradient id="linear-gradient-123" x1="894.91" y1="584.7" x2="836.89" y2="599.91" xlink:href="#linear-gradient-25"/><linearGradient id="linear-gradient-124" x1="842.58" y1="470.56" x2="847.65" y2="470.56" xlink:href="#linear-gradient-11"/><linearGradient id="linear-gradient-125" x1="797.55" y1="641.3" x2="800.55" y2="620.46" xlink:href="#linear-gradient-25"/><linearGradient id="linear-gradient-126" x1="805.69" y1="627.37" x2="817.24" y2="575.26" xlink:href="#linear-gradient-11"/><linearGradient id="linear-gradient-127" x1="864.85" y1="594.92" x2="805.13" y2="586.65" xlink:href="#linear-gradient-25"/><linearGradient id="linear-gradient-128" x1="-8066.96" y1="-1145.84" x2="-8077.94" y2="-1128.07" gradientTransform="matrix(-0.93, -0.37, -0.37, 0.93, -7028.3, -1408.25)" xlink:href="#linear-gradient-11"/><linearGradient id="linear-gradient-129" x1="896.08" y1="528.18" x2="997.55" y2="528.18" xlink:href="#linear-gradient-91"/><linearGradient id="linear-gradient-130" x1="891.32" y1="506.23" x2="878.93" y2="579.09" xlink:href="#linear-gradient-11"/><linearGradient id="linear-gradient-131" x1="848.28" y1="538.37" x2="928.55" y2="538.37" xlink:href="#linear-gradient"/><linearGradient id="linear-gradient-132" x1="634.23" y1="176.58" x2="695.88" y2="176.58" xlink:href="#linear-gradient-25"/></defs><g class="cls-1"><g id="Layer_2" data-name="Layer 2"><g id="Layer_4" data-name="Layer 4"><path class="cls-2" d="M505.39,551.46c-77.64,2.47-133.34,9.12-204.38,17.77-59.9,7.3-270.79,33-269.91,55.54.74,18.84,148.9,24.33,148.84,44.43,0,10.62-41.47,14.86-41.1,22.21.62,12.26,117.07,24.09,261,16.66,142-7.33,168.83-26.07,333.22-45.54,212-25.11,320.48-12.07,322.11-28.88,2.06-21.23-169.25-59.43-311-74.42C721.27,556.81,628.52,547.53,505.39,551.46Z"/><path class="cls-3" d="M510.94,562.56c-17.26,2.49-43.38,7.46-86.64,11.67-19,1.85-63.52,5.72-110,10-32.84,3-51,4.82-51.1,7.78-.11,5.08,53.39,8.15,53.32,12.22-.15,8.14-215,1.29-217.15,21.66-1,10.06,50,24.93,90.53,31.65,63.22,10.49,111.9,3,191-10,147.94-24.2,143.63-24.67,180.5-30,152.79-22.06,226-13.81,226.59-23.33C789,580.19,631,545.24,510.94,562.56Z"/><path class="cls-3" d="M288.24,670.31c-3.45-13.11-92-8.2-93.86,5-1.06,7.5,25.29,21.8,51.65,18.89C268,691.75,290.08,677.34,288.24,670.31Z"/><path class="cls-3" d="M684.21,629.21c-32.24-9.34-71.41-.63-71.64,7.77-.2,7.38,29.55,16.28,55.54,13.89,14.26-1.31,32.75-6.51,32.76-12.22C700.89,634,688.86,630.55,684.21,629.21Z"/><path class="cls-3" d="M829.16,622c-34.22-2.77-71.19,5.19-71.08,11.66s39,12.54,72.75,10c15.15-1.14,40.43-4.83,40.54-10C871.48,628.63,847.72,623.49,829.16,622Z"/><polygon class="cls-4" points="800.86 478.59 57.37 523.46 128.78 411.17 844.83 391.01 800.86 478.59"/><polygon class="cls-5" points="535.1 365.8 0 375.05 76.02 262.36 590.03 270.02 535.1 365.8"/><polygon class="cls-6" points="1098.24 262.76 499.34 250.18 555.58 155.42 1134.62 186.23 1098.24 262.76"/><polygon class="cls-7" points="1029.58 157.74 590.6 130.38 629.69 64.06 1057.95 100.89 1029.58 157.74"/><polygon class="cls-8" points="1025.06 361.83 554.62 370.37 596.92 295.99 1055.11 299.17 1025.06 361.83"/><polygon class="cls-9" points="1099.34 408.89 904.71 420.82 920.74 388.6 1113.12 379.08 1099.34 408.89"/><path class="cls-10" d="M865.25,579.45c-10.5-3.64-28.19-9.76-40.56-26.73-22.48-30.85-12.81-77.52,4.86-106.78,15.17-25.13,42.08-40.81,95.9-72.17,50.69-29.54,67.72-32.51,72.67-51.53,7.06-27.11-20.43-48.5-7.46-78.9,1.56-3.65,6.91-16.17,18.7-20.52,20.19-7.44,45.1,14.31,56.55,30.1,11,15.23,22.52,42.77,12.31,64.3-7.39,15.6-19.88,14.8-23.08,29.28s8.47,19.79,13,44.14c1.83,9.73,5.51,29.26-3.65,45.61-11.84,21.13-34.42,17.81-39.22,35.57-3.47,12.83,7.19,18.77,6.39,33.75-1.06,19.72-20.81,33.47-37.4,44.69C974.78,563.47,922.08,599.12,865.25,579.45Z"/><path class="cls-11" d="M1016.66,231.48c-10.87,7.44,20.11,41.17,10.94,85.28-9.86,47.47-60.19,78-83.45,92.13C904.46,433,887.69,427.66,862.06,455c-10.15,10.79-31.28,33.29-29.19,64.75.2,2.93,2.85,35.49,27.82,51.08,28.32,17.69,63.82.1,94.4-15,18.48-9.15,55.4-27.44,52.9-47.88-1.52-12.5-17.43-22.92-30.55-26-18.73-4.39-34.36,5.56-36,2.28-1.5-2.95,9.73-13.86,25.08-21.89,30.71-16.06,46.5-4.16,69.32-19.15,2.77-1.82,24.48-16.53,25.08-39.22.35-13.09-6.32-29.17-16.87-31.92-11.94-3.12-23.69,12.16-26.45,9.57s6.51-17.95,17.79-31.92c16.56-20.53,23.92-20.71,30.09-33.75,9.43-19.88,2.42-40.79,1.37-43.78C1057,244.05,1026,225.13,1016.66,231.48Z"/><path class="cls-12" d="M872,588c-5.52,6.43-47.17-.48-70.46-22.34-4.67-4.38-13.09-12.29-14.95-23.77-2.28-14,7.79-17.44,6.56-32.43-1.13-13.76-9.86-13.93-11.75-30.9-.71-6.37-2.15-19.29,7.7-26,5.72-3.89,10.35-2.35,13-5.93,4.82-6.39-8.66-13.1-8.88-26.48-.11-7.25,3.9-12.64,11.91-23.44,7.3-9.84,11.41-15.38,18.9-16.66,11-1.88,16.89,7.5,24.29,5.47,12-3.28,1.27-29.16,18.78-41,11.17-7.56,28-5.47,31-5,32.3,4.56,60.19,41.56,50.36,67-7.75,20.09-36.09,25.61-35,46.06.39,7.11,4,10.55,2.37,19.61-2.16,11.69-10.8,19.89-15.41,24.17-17.48,16.21-33.41,15.19-36.14,26-1.72,6.81,4.39,8.12,3.72,19.11-.61,10-5.87,11.77-6.68,20.11C859.91,576.57,875.73,583.65,872,588Z"/><path class="cls-11" d="M919.67,356.18c11.47,3.16,18.92,17.52,20.52,28.28,2.29,15.39-6,32.67-19.15,41-20.43,13-43.11-1.54-52,10.95-4.69,6.59-3.57,17.94,1.82,23.26,9.49,9.34,29.34-2.83,34.66,4.56,3.81,5.28-1.32,18.47-10.49,26-18.31,15-47,2.76-50.62,11.86-.84,2.14,2.63,8.72,9.58,21.89,5.25,9.94,6.36,10.93,6.38,14.14.08,9.68-10,11.93-10.94,21.43-1.06,11,11.34,18.68,9.58,21s-17.75-3.15-27.82-13.23c-23.89-23.87-12.63-70.62-8.67-87.1C838.52,413.8,890.43,348.13,919.67,356.18Z"/><path class="cls-13" d="M200.39,241.6l-4.53,0a35.82,35.82,0,0,0-1.6-6l3.93-2.23a2.24,2.24,0,0,0,.82-3.06l-3.88-6.75a2.26,2.26,0,0,0-3.07-.86l-4,2.24a36.32,36.32,0,0,0-4.37-4.4l2.31-3.95a2.27,2.27,0,0,0-.83-3.09l-6.76-4a2.25,2.25,0,0,0-3.1.77l-2.33,4a36.44,36.44,0,0,0-6-1.67v-4.65a2.31,2.31,0,0,0-2.28-2.29l-7.9-.14a2.24,2.24,0,0,0-2.29,2.23v4.66a36,36,0,0,0-6.06,1.5l-2.35-4.07a2.35,2.35,0,0,0-3.15-.88l-6.9,3.82a2.24,2.24,0,0,0-.85,3.1l2.37,4.07a35.27,35.27,0,0,0-4.48,4.33l-4.1-2.38a2.33,2.33,0,0,0-3.17.8l-4,6.78a2.28,2.28,0,0,0,.85,3.13l4.07,2.34a34.09,34.09,0,0,0-1.65,6l-4.7,0a2.29,2.29,0,0,0-2.33,2.27v7.89a2.33,2.33,0,0,0,2.33,2.3l4.66,0a35.71,35.71,0,0,0,1.63,6.09l-4,2.26a2.25,2.25,0,0,0-.85,3.11l4,6.84a2.34,2.34,0,0,0,3.17.84l4-2.26a35.35,35.35,0,0,0,4.52,4.47l-2.29,3.9a2.25,2.25,0,0,0,.85,3.11l6.9,3.91a2.33,2.33,0,0,0,3.15-.83l2.25-3.87a36.22,36.22,0,0,0,6.16,1.62v4.45a2.26,2.26,0,0,0,2.29,2.26l7.9,0A2.28,2.28,0,0,0,167,287v-4.44a36.49,36.49,0,0,0,6.1-1.62l2.23,3.83a2.27,2.27,0,0,0,3.1.82l6.76-3.9a2.25,2.25,0,0,0,.83-3.07l-2.23-3.86a36.65,36.65,0,0,0,4.41-4.4l3.87,2.23a2.25,2.25,0,0,0,3.07-.82l3.88-6.7a2.25,2.25,0,0,0-.82-3.07l-3.88-2.25a34.15,34.15,0,0,0,1.58-6l4.5,0a2.23,2.23,0,0,0,2.24-2.23v-7.74A2.26,2.26,0,0,0,200.39,241.6Zm-39.63-16.91a23.17,23.17,0,0,1,23,23,22.78,22.78,0,0,1-23,22.69,23.15,23.15,0,0,1-23.2-23A22.77,22.77,0,0,1,160.76,224.69Z"/><path class="cls-14" d="M312.35,99.15,305.2,99a54.13,54.13,0,0,0-2.53-9.22l6.21-3.29a3.33,3.33,0,0,0,1.29-4.67l-6.11-10.5a3.69,3.69,0,0,0-4.85-1.43l-6.3,3.32A58.57,58.57,0,0,0,286,66.26l3.65-6a3.47,3.47,0,0,0-1.31-4.77l-10.71-6.39a3.59,3.59,0,0,0-4.91,1.08l-3.69,6a60.78,60.78,0,0,0-9.53-2.79V46.25a3.73,3.73,0,0,0-3.63-3.63l-12.56-.5a3.41,3.41,0,0,0-3.65,3.35v7.19A59,59,0,0,0,230,54.75l-3.77-6.36a3.86,3.86,0,0,0-5-1.48l-11.05,5.65a3.36,3.36,0,0,0-1.36,4.76l3.79,6.38a53.77,53.77,0,0,0-7.17,6.56l-6.58-3.83a3.78,3.78,0,0,0-5.09,1.12L187.3,77.92a3.51,3.51,0,0,0,1.37,4.88l6.54,3.77a51.14,51.14,0,0,0-2.66,9.3l-7.56-.2a3.53,3.53,0,0,0-3.75,3.44v12.24A3.75,3.75,0,0,0,185,115l7.5.18a53.72,53.72,0,0,0,2.62,9.49L188.67,128a3.39,3.39,0,0,0-1.37,4.8l6.45,10.7a3.88,3.88,0,0,0,5.09,1.38l6.38-3.39a60.06,60.06,0,0,0,7.24,7l-3.66,6a3.46,3.46,0,0,0,1.36,4.83l11.05,6.21a3.74,3.74,0,0,0,5-1.23l3.61-5.91a60.66,60.66,0,0,0,9.82,2.63v6.88a3.64,3.64,0,0,0,3.65,3.54l12.56.13a3.52,3.52,0,0,0,3.63-3.45v-6.85a57.36,57.36,0,0,0,9.69-2.36l3.53,6a3.69,3.69,0,0,0,4.91,1.33l10.71-5.85a3.37,3.37,0,0,0,1.31-4.71l-3.53-6a54.31,54.31,0,0,0,7-6.66l6.11,3.52a3.58,3.58,0,0,0,4.85-1.18l6.11-10.19a3.43,3.43,0,0,0-1.29-4.73l-6.11-3.56a51.55,51.55,0,0,0,2.49-9.14l7.09.17a3.39,3.39,0,0,0,3.53-3.36V102.69A3.61,3.61,0,0,0,312.35,99.15ZM249.6,71.86C269.79,72.53,286,88.72,286,108s-16.24,34.67-36.43,34.33c-20.38-.35-37-16.55-37-36.18S229.22,71.19,249.6,71.86Z"/><path class="cls-15" d="M249.6.15c-62.35-3.1-114.21,43.39-114.21,103.93S187.25,213.72,249.6,213.76c60.62,0,108.53-46.55,108.53-104.07S310.22,3.16,249.6.15Zm0,188.07c-47.27-.31-86.36-37.67-86.36-83.44s39.09-81.17,86.36-79.09c46.28,2,83.07,39.33,83.07,83.36S295.88,188.52,249.6,188.22Z"/><path class="cls-16" d="M173.86,144.48l-24,12.67a113.56,113.56,0,0,0,38.73,39.4l13.67-22.34A86.41,86.41,0,0,1,173.86,144.48Z"/><path class="cls-17" d="M317.92,62.87l22.3-11.75a114.23,114.23,0,0,0-35.86-34.25l-13,21.33A86.93,86.93,0,0,1,317.92,62.87Z"/><path class="cls-18" d="M179.07,57.89a81,81,0,0,1,28-23.18l-13.62-23a106.5,106.5,0,0,0-38.38,32.21Z"/><path class="cls-19" d="M163.24,104.78c0-1,0-2,.08-2.92l-27.89-.72c0,1,0,2,0,2.94a104.76,104.76,0,0,0,12,48.65L171.51,140A79.61,79.61,0,0,1,163.24,104.78Z"/><path class="cls-20" d="M332.67,109.05A77,77,0,0,1,325,142.68l22.22,12.91a101.18,101.18,0,0,0,10.92-45.9c0-.93,0-1.86,0-2.79l-25.49-.66C332.63,107.17,332.67,108.11,332.67,109.05Z"/><path class="cls-21" d="M322.8,146.91a80,80,0,0,1-26.87,28.2l13,22a105.15,105.15,0,0,0,36-37.34Z"/><path class="cls-22" d="M320.62,67a80.46,80.46,0,0,1,11.68,34.53l25.55.69a105.41,105.41,0,0,0-15-46.95Z"/><path class="cls-23" d="M247.08,188.14a88.4,88.4,0,0,1-40.43-11.32L193,199.13a116.66,116.66,0,0,0,54.06,14.6Z"/><path class="cls-24" d="M291.73,177.6a85.3,85.3,0,0,1-39.61,10.58v25.55a112,112,0,0,0,52.63-14.16Z"/><path class="cls-25" d="M211.58,32.59a85.88,85.88,0,0,1,35.5-7V.05A112.91,112.91,0,0,0,198,9.59Z"/><path class="cls-26" d="M163.65,96.93a76.79,76.79,0,0,1,12.54-35l-24-13.9a100.93,100.93,0,0,0-16.53,48.18Z"/><path class="cls-27" d="M252.12,25.86A88.57,88.57,0,0,1,287,35.75L300,14.38A116.84,116.84,0,0,0,252.12.3Z"/><path class="cls-28" d="M134.1,170.68l-3.49,0a25.14,25.14,0,0,0-1.23-4.4l3-1.7a1.65,1.65,0,0,0,.63-2.28l-3-5a1.78,1.78,0,0,0-2.37-.6l-3.06,1.72a26.1,26.1,0,0,0-3.36-3.2l1.78-3a1.64,1.64,0,0,0-.64-2.28l-5.19-2.86a1.78,1.78,0,0,0-2.37.62l-1.79,3a27.91,27.91,0,0,0-4.6-1.16v-3.44a1.7,1.7,0,0,0-1.75-1.66h-6a1.72,1.72,0,0,0-1.75,1.68v3.45a27.58,27.58,0,0,0-4.63,1.19l-1.8-3a1.8,1.8,0,0,0-2.4-.6l-5.27,2.91a1.64,1.64,0,0,0-.65,2.3l1.81,3a27.06,27.06,0,0,0-3.42,3.26L79.43,157a1.81,1.81,0,0,0-2.41.63L74,162.69a1.64,1.64,0,0,0,.64,2.3l3.11,1.68a25.23,25.23,0,0,0-1.27,4.48l-3.58,0a1.75,1.75,0,0,0-1.77,1.7v5.83a1.7,1.7,0,0,0,1.77,1.66l3.56,0a25.16,25.16,0,0,0,1.24,4.48l-3.06,1.71a1.66,1.66,0,0,0-.64,2.31l3.06,5a1.79,1.79,0,0,0,2.41.58l3-1.7A26.58,26.58,0,0,0,85.92,196l-1.75,2.9a1.62,1.62,0,0,0,.65,2.29L90.09,204a1.82,1.82,0,0,0,2.4-.65l1.72-2.88a28.35,28.35,0,0,0,4.71,1.12v3.3a1.69,1.69,0,0,0,1.75,1.65l6-.1a1.75,1.75,0,0,0,1.75-1.7v-3.29a29.07,29.07,0,0,0,4.68-1.27l1.71,2.82a1.76,1.76,0,0,0,2.37.57l5.19-3a1.65,1.65,0,0,0,.64-2.29l-1.72-2.83a27.2,27.2,0,0,0,3.39-3.31l3,1.61a1.79,1.79,0,0,0,2.37-.64l3-5a1.63,1.63,0,0,0-.63-2.27l-3-1.62a25.63,25.63,0,0,0,1.21-4.45l3.46,0a1.71,1.71,0,0,0,1.72-1.68v-5.74A1.67,1.67,0,0,0,134.1,170.68Zm-30.4-12c9.73,0,17.59,7.44,17.59,16.74s-7.86,16.94-17.59,17.07S86,185.11,86,175.73,93.92,158.71,103.7,158.66Z"/><path class="cls-29" d="M645.69,571.35A28.48,28.48,0,0,1,626.8,549.9l-14-69.48-120.09,4.26-14.78,72.39c-2.07,10.14,6.22,20.31,15.76,24l50.24,19.66A65.35,65.35,0,0,0,573.27,605l106.18-9.09a6.59,6.59,0,0,0,6-5.83c.36-3.13,2.53-6.65-.43-7.63Z"/><path class="cls-30" d="M646.88,567.12A28.23,28.23,0,0,1,628,546l-14-68.61-117.16,4.21L482.06,553A20.9,20.9,0,0,0,495,576.76l50.19,19.41a66,66,0,0,0,29.35,4.21l106.08-9a6.55,6.55,0,0,0,1.48-12.74Z"/><path class="cls-29" d="M247.28,526.6c-13,.78-23.68-7.67-23.68-18.84V105.35c0-11.16,10.66-19.79,23.68-19.22L852.16,128c9.56.42,14.69-7.3,14.69,2.2V472.44a18.57,18.57,0,0,1-17.3,18.26Z"/><path class="cls-31" d="M252.69,526.6c-13,.78-23.67-7.67-23.67-18.84V105.35c0-11.16,10.65-19.79,23.67-19.22L855,112.22a18.21,18.21,0,0,1,17.3,18V472.44A18.57,18.57,0,0,1,855,490.7Z"/><path class="cls-32" d="M855,120.28,252.69,95.5c-7-.28-12.62,4.32-12.62,10.28V507.16c0,6,5.66,10.47,12.62,10.07L855,482.64a9.91,9.91,0,0,0,9.27-9.75v-343A9.72,9.72,0,0,0,855,120.28Z"/><path class="cls-33" d="M850.48,453.68,259.22,482.87c-6.2.31-11.25-3.8-11.25-9.16V111.05c0-5.37,5.05-9.53,11.25-9.3l591.26,22a8.77,8.77,0,0,1,8.4,8.68V444.89A8.9,8.9,0,0,1,850.48,453.68Z"/><polygon class="cls-34" points="406.72 140.05 271.69 136.08 271.69 123.2 406.72 127.57 406.72 140.05"/><polygon class="cls-35" points="470.31 138.36 439.12 137.41 439.12 128.62 470.31 129.63 470.31 138.36"/><polygon class="cls-35" points="470.31 150.49 439.12 149.63 439.12 140.84 470.31 141.76 470.31 150.49"/><polygon class="cls-36" points="625.76 154.74 504.74 151.43 504.74 142.77 625.76 146.34 625.76 154.74"/><polygon class="cls-37" points="645.6 166.91 525.79 163.98 525.79 155.36 645.6 158.54 645.6 166.91"/><polygon class="cls-38" points="645.6 178.53 525.79 175.95 525.79 167.33 645.6 170.17 645.6 178.53"/><polygon class="cls-34" points="645.6 190.16 525.79 187.92 525.79 179.3 645.6 181.79 645.6 190.16"/><polygon class="cls-35" points="470.31 162.62 439.12 161.85 439.12 153.06 470.31 153.89 470.31 162.62"/><polygon class="cls-35" points="470.31 174.75 439.12 174.08 439.12 165.28 470.31 166.02 470.31 174.75"/><polygon class="cls-35" points="470.31 186.88 439.12 186.3 439.12 177.5 470.31 178.15 470.31 186.88"/><polygon class="cls-35" points="470.31 199.01 439.12 198.52 439.12 189.72 470.31 190.28 470.31 199.01"/><polygon class="cls-34" points="553.9 200.33 477.12 199.12 477.12 190.4 553.9 191.78 553.9 200.33"/><polygon class="cls-35" points="470.31 211.14 439.12 210.74 439.12 201.94 470.31 202.41 470.31 211.14"/><polygon class="cls-35" points="470.31 223.27 439.12 222.96 439.12 214.16 470.31 214.54 470.31 223.27"/><polygon class="cls-35" points="470.31 235.4 439.12 235.18 439.12 226.38 470.31 226.67 470.31 235.4"/><polygon class="cls-39" points="589.87 212.69 504.74 211.59 504.74 202.93 589.87 204.2 589.87 212.69"/><polygon class="cls-34" points="634.1 224.91 525.79 223.83 525.79 215.21 634.1 216.52 634.1 224.91"/><polygon class="cls-40" points="634.1 236.57 525.79 235.8 525.79 227.18 634.1 228.18 634.1 236.57"/><polygon class="cls-35" points="470.31 247.53 439.12 247.4 439.12 238.6 470.31 238.8 470.31 247.53"/><polygon class="cls-35" points="470.31 259.66 439.12 259.62 439.12 250.83 470.31 250.93 470.31 259.66"/><polygon class="cls-35" points="470.31 271.79 439.12 271.84 439.12 263.05 470.31 263.06 470.31 271.79"/><polygon class="cls-35" points="470.31 283.93 439.12 284.06 439.12 275.27 470.31 275.19 470.31 283.93"/><polygon class="cls-35" points="470.31 296.06 439.12 296.28 439.12 287.49 470.31 287.32 470.31 296.06"/><polygon class="cls-35" points="470.31 308.19 439.12 308.5 439.12 299.71 470.31 299.45 470.31 308.19"/><polygon class="cls-35" points="470.31 320.32 439.12 320.73 439.12 311.93 470.31 311.59 470.31 320.32"/><polygon class="cls-35" points="470.31 332.45 439.12 332.95 439.12 324.15 470.31 323.72 470.31 332.45"/><polygon class="cls-35" points="470.31 344.58 439.12 345.17 439.12 336.37 470.31 335.85 470.31 344.58"/><polygon class="cls-35" points="470.31 356.71 439.12 357.39 439.12 348.59 470.31 347.98 470.31 356.71"/><polygon class="cls-35" points="470.31 368.84 439.12 369.61 439.12 360.81 470.31 360.11 470.31 368.84"/><polygon class="cls-35" points="470.31 380.97 439.12 381.83 439.12 373.03 470.31 372.24 470.31 380.97"/><polygon class="cls-35" points="470.31 393.1 439.12 394.05 439.12 385.25 470.31 384.37 470.31 393.1"/><polygon class="cls-35" points="470.31 405.23 439.12 406.27 439.12 397.48 470.31 396.5 470.31 405.23"/><polygon class="cls-35" points="470.31 417.36 439.12 418.49 439.12 409.7 470.31 408.63 470.31 417.36"/><polygon class="cls-35" points="470.31 429.49 439.12 430.71 439.12 421.92 470.31 420.76 470.31 429.49"/><polygon class="cls-35" points="470.31 441.62 439.12 442.93 439.12 434.14 470.31 432.89 470.31 441.62"/><polygon class="cls-35" points="470.31 453.75 439.12 455.15 439.12 446.36 470.31 445.02 470.31 453.75"/><polygon class="cls-41" points="561.98 141.13 476.91 138.56 476.91 129.84 561.98 132.59 561.98 141.13"/><polygon class="cls-34" points="625.76 388.37 504.74 392.05 504.74 383.39 625.76 379.96 625.76 388.37"/><polygon class="cls-42" points="645.6 399.39 525.79 403.38 525.79 394.77 645.6 391.02 645.6 399.39"/><polygon class="cls-43" points="645.6 411.01 525.79 415.35 525.79 406.74 645.6 402.64 645.6 411.01"/><polygon class="cls-44" points="697.24 420.62 580.52 425.18 580.52 416.68 697.24 412.36 697.24 420.62"/><polygon class="cls-45" points="697.24 432.09 580.52 436.99 580.52 428.49 697.24 423.83 697.24 432.09"/><polygon class="cls-34" points="697.24 443.56 580.52 448.81 580.52 440.3 697.24 435.31 697.24 443.56"/><polygon class="cls-46" points="561.98 378.44 476.91 380.79 476.91 372.07 561.98 369.9 561.98 378.44"/><polygon class="cls-47" points="625.76 259.87 504.74 259.71 504.74 251.05 625.76 251.47 625.76 259.87"/><polygon class="cls-34" points="645.6 271.52 525.79 271.71 525.79 263.09 645.6 263.16 645.6 271.52"/><polygon class="cls-48" points="645.6 283.15 525.79 283.68 525.79 275.06 645.6 274.78 645.6 283.15"/><polygon class="cls-49" points="645.6 294.77 525.79 295.65 525.79 287.03 645.6 286.41 645.6 294.77"/><polygon class="cls-50" points="553.9 307.33 477.12 308.12 477.12 299.4 553.9 298.78 553.9 307.33"/><polygon class="cls-34" points="589.87 318.75 504.74 319.87 504.74 311.21 589.87 310.27 589.87 318.75"/><polygon class="cls-51" points="634.1 329.83 525.79 331.56 525.79 322.94 634.1 321.44 634.1 329.83"/><polygon class="cls-52" points="634.1 341.49 525.79 343.53 525.79 334.92 634.1 333.1 634.1 341.49"/><polygon class="cls-53" points="658.11 352.62 551.11 354.95 551.11 346.39 658.11 344.28 658.11 352.62"/><polygon class="cls-54" points="658.11 364.21 551.11 366.85 551.11 358.28 658.11 355.87 658.11 364.21"/><polygon class="cls-55" points="561.98 247.92 476.91 247.56 476.91 238.84 561.98 239.38 561.98 247.92"/><polygon class="cls-56" points="406.72 159.55 329.43 157.63 329.43 144.92 406.72 147.07 406.72 159.55"/><polygon class="cls-34" points="309.44 157.13 324 157.49 324 144.77 309.44 144.37 309.44 157.13"/><polygon class="cls-34" points="406.72 177.48 329.43 175.89 329.43 163.19 406.72 165.01 406.72 177.48"/><polygon class="cls-34" points="309.44 175.48 324 175.78 324 163.06 309.44 162.71 309.44 175.48"/><polygon class="cls-34" points="406.72 195.42 329.43 194.15 329.43 181.45 406.72 182.94 406.72 195.42"/><polygon class="cls-34" points="309.44 193.83 324 194.06 324 181.34 309.44 181.06 309.44 193.83"/><polygon class="cls-56" points="406.72 322.75 271.69 324.57 271.69 311.7 406.72 310.27 406.72 322.75"/><polygon class="cls-34" points="406.72 342.25 329.43 343.65 329.43 330.94 406.72 329.77 406.72 342.25"/><polygon class="cls-34" points="309.44 344.01 324 343.74 324 331.02 309.44 331.24 309.44 344.01"/><polygon class="cls-34" points="406.72 360.19 329.43 361.91 329.43 349.2 406.72 347.71 406.72 360.19"/><polygon class="cls-34" points="309.44 362.35 324 362.03 324 349.31 309.44 349.59 309.44 362.35"/><polygon class="cls-34" points="406.72 378.13 329.43 380.17 329.43 367.47 406.72 365.65 406.72 378.13"/><polygon class="cls-34" points="309.44 380.7 324 380.32 324 367.6 309.44 367.94 309.44 380.7"/><polygon class="cls-56" points="406.72 213.48 271.69 211.84 271.69 198.96 406.72 201 406.72 213.48"/><polygon class="cls-34" points="406.72 232.98 329.43 232.39 329.43 219.69 406.72 220.5 406.72 232.98"/><polygon class="cls-34" points="309.44 232.24 324 232.35 324 219.63 309.44 219.48 309.44 232.24"/><polygon class="cls-34" points="406.72 250.92 329.43 250.66 329.43 237.95 406.72 238.44 406.72 250.92"/><polygon class="cls-34" points="309.44 250.59 324 250.64 324 237.92 309.44 237.82 309.44 250.59"/><polygon class="cls-34" points="406.72 287.03 329.43 287.42 329.43 274.72 406.72 274.55 406.72 287.03"/><polygon class="cls-34" points="309.44 287.52 324 287.45 324 274.73 309.44 274.76 309.44 287.52"/><polygon class="cls-34" points="406.72 304.97 329.43 305.69 329.43 292.98 406.72 292.49 406.72 304.97"/><polygon class="cls-34" points="309.44 305.87 324 305.74 324 293.01 309.44 293.11 309.44 305.87"/><polygon class="cls-34" points="406.72 268.86 329.43 268.92 329.43 256.21 406.72 256.38 406.72 268.86"/><polygon class="cls-34" points="309.44 268.94 324 268.93 324 256.2 309.44 256.17 309.44 268.94"/><polygon class="cls-56" points="406.72 396.06 271.69 400.2 271.69 387.33 406.72 383.58 406.72 396.06"/><polygon class="cls-34" points="406.72 415.56 329.43 418.28 329.43 405.58 406.72 403.08 406.72 415.56"/><polygon class="cls-34" points="309.44 418.99 324 418.47 324 405.75 309.44 406.22 309.44 418.99"/><polygon class="cls-34" points="406.72 433.49 329.43 436.55 329.43 423.84 406.72 421.02 406.72 433.49"/><polygon class="cls-34" points="309.44 437.33 324 436.76 324 424.04 309.44 424.57 309.44 437.33"/><polygon class="cls-34" points="406.72 451.43 329.43 454.81 329.43 442.1 406.72 438.95 406.72 451.43"/><polygon class="cls-34" points="309.44 455.68 324 455.05 324 442.33 309.44 442.92 309.44 455.68"/><polygon class="cls-34" points="423.13 450.78 420.15 450.91 420.15 128 423.13 128.1 423.13 450.78"/><path class="cls-34" d="M792.08,465.79c-131.1,2.74-160.58,21.46-197.84-1-51.19-30.82-27.87-85.65-77.75-114.41-62.7-36.15-135,30.07-167.72-2.22s29-107.81-6.66-192.16c-14.31-33.84-38.66-55.83-55.48-68.43l-33.94-1.47c-13-.57-23.67,8.06-23.67,19.22V507.76c0,11.17,10.65,19.62,23.67,18.84L855,490.7a18.57,18.57,0,0,0,17.3-18.26v-6.08C854.21,465.72,826.25,465.07,792.08,465.79Z"/><path class="cls-31" d="M844.79,457.55,551.88,523.68c-7.24,1.63-13.17-3-13.17-10.35V82.13c0-7.36,5.93-12.32,13.17-11.09l292.91,49.69c4,.67,7.14,5.57,7.14,10.93V446.21C851.93,451.58,848.75,456.65,844.79,457.55Z"/><path class="cls-57" d="M851.45,457.55,558.54,523.68c-7.23,1.63-13.17-3-13.17-10.35V82.13c0-7.36,5.94-12.32,13.17-11.09l292.91,49.69c4,.67,7.15,5.57,7.15,10.93V446.21C858.6,451.58,855.41,456.65,851.45,457.55Z"/><g class="cls-58"><path class="cls-59" d="M813.89,399c-36.27-40.91-11.3-107.21-44.43-124.4-27.56-14.31-57.06,25.24-83.3,11.66-34.13-17.66-2.44-93.95-36.1-152.73-12-20.94-35.4-45.09-85.75-61.52l-5.77-1c-7.23-1.23-13.17,3.73-13.17,11.09v431.2c0,7.36,5.94,12,13.17,10.35l292.91-66.13c4-.9,7.15-6,7.15-11.34V424.46C840.6,419.9,825.23,411.8,813.89,399Z"/></g><path class="cls-60" d="M845,143.07l-276.1-39.31c-2.49-.35-4.51,2.87-4.51,7.21v88.37c0,4.34,2,8,4.51,8.08L845,221.5c1.41.07,2.56-2.52,2.56-5.77v-66.4C847.55,146.07,846.4,143.27,845,143.07Z"/><path class="cls-60" d="M568.89,207.42l98.75,5c-.75-25.55-3.21-53.83-17.58-78.92a107,107,0,0,0-15.21-20.39l-66-9.39c-2.49-.35-4.51,2.87-4.51,7.21v88.37C564.38,203.68,566.4,207.3,568.89,207.42Z"/><path class="cls-61" d="M655.23,305.81,571,309.07a6.37,6.37,0,0,1-6.59-6.48v-66A6.43,6.43,0,0,1,571,230l84.26,2.62a6.12,6.12,0,0,1,5.59,6.34v60.44C660.82,302.83,658.33,305.69,655.23,305.81Z"/><path class="cls-56" d="M655.23,388,571,397.9a5.81,5.81,0,0,1-6.59-6v-66a7.07,7.07,0,0,1,6.59-7.05l84.26-4c3.1-.15,5.59,2.5,5.59,5.9v60.44C660.82,384.62,658.33,387.67,655.23,388Z"/><path class="cls-56" d="M655.23,470.22,571,486.7a5.33,5.33,0,0,1-6.59-5.45v-66a7.8,7.8,0,0,1,6.59-7.57l84.26-10.6c3.1-.39,5.59,2.06,5.59,5.47V463C660.82,466.37,658.33,469.62,655.23,470.22Z"/><polygon class="cls-62" points="847.16 432.68 666.05 468.11 666.05 232.99 847.16 238.62 847.16 432.68"/><polygon class="cls-63" points="847.16 432.68 666.05 468.11 666.05 432.45 847.16 403.25 847.16 432.68"/><path class="cls-64" d="M782.14,327.48c0,19.61-7.48,36.29-16.87,37.29-9.59,1-17.5-14.63-17.5-35s7.91-37.05,17.5-37.33C774.66,292.2,782.14,307.88,782.14,327.48Z"/><polygon class="cls-60" points="758.49 350.12 758.49 308.04 778.21 327.75 758.49 350.12"/><polygon class="cls-60" points="844.04 421.5 670.6 453.04 670.6 447.32 844.04 416.74 844.04 421.5"/><polygon class="cls-65" points="720.46 443.98 670.6 453.04 670.6 447.32 720.46 438.53 720.46 443.98"/><path class="cls-31" d="M722,441c0,4.5-1.82,8.49-4.07,8.92s-4.11-2.92-4.11-7.46,1.84-8.54,4.11-8.92S722,436.47,722,441Z"/><path class="cls-66" d="M813.89,399c-36.27-40.91-11.3-107.21-44.43-124.4-27.56-14.31-57.06,25.24-83.3,11.66-15.5-8-17.43-28.14-18.06-53.22l-2.05-.06V468.11l181.11-35.43V420.93C834.06,416.11,822.74,409,813.89,399Z"/><path class="cls-67" d="M342.53,637.12a.62.62,0,0,1-.62-.62V391.62a.62.62,0,0,1,.62-.62.62.62,0,0,1,.62.62V636.5A.62.62,0,0,1,342.53,637.12Z"/><path class="cls-67" d="M276.56,621.73a.62.62,0,0,1-.62-.62V385.45a.62.62,0,0,1,1.24,0V621.11A.62.62,0,0,1,276.56,621.73Z"/><path class="cls-67" d="M124,632.71a.52.52,0,0,1-.21,0,.63.63,0,0,1-.38-.8l88.19-243a.63.63,0,0,1,.8-.37.62.62,0,0,1,.37.79l-88.19,243A.62.62,0,0,1,124,632.71Z"/><path class="cls-67" d="M189.14,651.72l-.18,0a.63.63,0,0,1-.41-.78l79.15-256.2a.62.62,0,0,1,.77-.41.61.61,0,0,1,.41.78l-79.14,256.2A.63.63,0,0,1,189.14,651.72Z"/><polygon class="cls-67" points="277.29 385.2 343.47 390.1 343.47 391.59 267.83 394.98 211.3 388.05 211.3 386.56 277.29 385.2"/><polygon class="cls-68" points="277.29 383.71 343.47 390.1 267.83 393.49 211.3 386.56 277.29 383.71"/><path class="cls-67" d="M206.27,596.3l-.16,0-63-16.53a.62.62,0,0,1,.32-1.2l63,16.53a.63.63,0,0,1,.45.76A.64.64,0,0,1,206.27,596.3Z"/><path class="cls-67" d="M224.12,538.31H224l-61.84-10.95a.62.62,0,0,1,.21-1.23l61.84,11a.62.62,0,0,1,.51.72A.64.64,0,0,1,224.12,538.31Z"/><path class="cls-67" d="M242.67,478.45h-.08l-59.85-7.71a.62.62,0,0,1-.53-.7.63.63,0,0,1,.69-.54l59.85,7.72a.62.62,0,0,1-.08,1.24Z"/><path class="cls-67" d="M254.57,436.91h-.1l-56.27-8.81a.62.62,0,1,1,.19-1.22l56.27,8.8a.63.63,0,0,1,.52.71A.62.62,0,0,1,254.57,436.91Z"/><path class="cls-69" d="M421.19,272.34l-141.26-.62a.9.9,0,0,1-.49-1.54L293.75,256V192.85a4.77,4.77,0,0,1,4.16-4.88l123.28-8a4.73,4.73,0,0,1,5.08,4.79v82.52A5.08,5.08,0,0,1,421.19,272.34Z"/><polygon class="cls-3" points="329.89 200.68 304.11 202.06 304.11 198.7 329.89 197.25 329.89 200.68"/><polygon class="cls-3" points="329.89 207.55 304.11 208.78 304.11 205.42 329.89 204.12 329.89 207.55"/><polygon class="cls-3" points="329.89 218.36 304.11 219.37 304.11 216 329.89 214.93 329.89 218.36"/><polygon class="cls-3" points="329.89 225.22 304.11 226.09 304.11 222.72 329.89 221.79 329.89 225.22"/><polygon class="cls-3" points="413.73 252.84 304.11 253.98 304.11 250.62 413.73 249.17 413.73 252.84"/><polygon class="cls-3" points="413.73 260.17 304.11 260.7 304.11 257.34 413.73 256.5 413.73 260.17"/><polygon class="cls-3" points="329.89 236.03 304.11 236.67 304.11 233.31 329.89 232.6 329.89 236.03"/><polygon class="cls-3" points="329.89 242.9 304.11 243.39 304.11 240.03 329.89 239.47 329.89 242.9"/><polygon class="cls-3" points="413.73 241.67 339.91 243.07 339.91 196.69 340.58 196.65 340.58 242.33 413.73 240.91 413.73 241.67"/><polygon class="cls-3" points="349.53 229.82 349.04 229.32 363.65 213.09 378.32 217.83 393.11 204.08 408.34 211.31 408 212 393.21 204.97 378.47 218.67 363.83 213.93 349.53 229.82"/><path class="cls-70" d="M351.64,229.5a2.52,2.52,0,0,1-2.35,2.57,2.34,2.34,0,0,1-2.35-2.43,2.52,2.52,0,0,1,2.35-2.57A2.34,2.34,0,0,1,351.64,229.5Z"/><path class="cls-71" d="M366.15,213.41a2.6,2.6,0,0,1-2.41,2.63,2.35,2.35,0,0,1-2.4-2.43,2.58,2.58,0,0,1,2.4-2.62A2.34,2.34,0,0,1,366.15,213.41Z"/><path class="cls-72" d="M380.86,218.16a2.64,2.64,0,0,1-2.47,2.65,2.4,2.4,0,0,1-2.45-2.47,2.63,2.63,0,0,1,2.45-2.65A2.41,2.41,0,0,1,380.86,218.16Z"/><path class="cls-73" d="M395.68,204.41a2.7,2.7,0,0,1-2.52,2.7,2.4,2.4,0,0,1-2.51-2.46,2.7,2.7,0,0,1,2.51-2.71A2.41,2.41,0,0,1,395.68,204.41Z"/><path class="cls-74" d="M410.75,211.55a2.72,2.72,0,0,1-2.58,2.72,2.46,2.46,0,0,1-2.57-2.51,2.73,2.73,0,0,1,2.57-2.72A2.47,2.47,0,0,1,410.75,211.55Z"/><path class="cls-75" d="M326.89,256.72l3.12-3.4a11.4,11.4,0,0,1,2.77-2.39c2.51-1.54,6-2.3,6.48-1.42s-2.69,4-3.81,4.92l-4.62,3.36Z"/><path class="cls-76" d="M260.29,233.6c-.85.32-13.77,5.45-16.42,18.93-.22,1.09-2.29,12.67,5.56,20.85,8.81,9.18,25.77,8.95,32.5,1.28a13.68,13.68,0,0,0,2.86-5.44L283,264.51a11.59,11.59,0,0,0-6.69-3.62c-3.88-.95-6.8.77-9-1.1a5.83,5.83,0,0,1-1.69-3.85c-.74-4.54,1.82-7.33,2-10.12.14-2.09.87-6.67-1.85-9.65A8.79,8.79,0,0,0,260.29,233.6Z"/><path class="cls-77" d="M255.25,383.82c-.15-.83-2.83-1.58-4.15-.47-.66.55-1.12,1.67-.74,2.18.14.18-.42.5.12.51C252.28,386.06,255.4,384.64,255.25,383.82Z"/><path class="cls-78" d="M252.44,384.12l-2.75-.39c1.28-1.54,1-6.43,1-6.43l2.93.65s-.33,1.35-.9,3.33A13.11,13.11,0,0,0,252.44,384.12Z"/><path class="cls-79" d="M252.69,383.78s-3.32-.76-3.68-.1-.64,2.42,1.47,2.36S252.88,384.34,252.69,383.78Z"/><path class="cls-80" d="M293.07,386.93c-.27-.8-3-1.17-4.18.12-.58.64-.87,1.81-.42,2.26.16.16-.36.56.18.49C290.44,389.57,293.33,387.73,293.07,386.93Z"/><path class="cls-81" d="M290.33,387.62h-2.78c1.05-1.7.13-6.51.13-6.51l3,.24s-.14,1.37-.43,3.42A13.62,13.62,0,0,0,290.33,387.62Z"/><path class="cls-82" d="M297.54,282.36a128,128,0,0,1,4.32,19.76c3.38,24.59-3.8,25.37-2.46,52.63.43,8.7-7.54,28.76-8.24,29.2a9.66,9.66,0,0,1-1.1,0,10.57,10.57,0,0,1-2.81-.47c-1.26-.21-5.81-12.53-4.75-19.86.74-5.18.53-10.75.09-21.88-.07-1.8-4.68-35.08-4.68-35.08-1.4,12.32-3,22.79-4.42,30.9-4.49,26.07-19.11,41.85-19.87,42.1a3,3,0,0,1-2.64-.18,1.77,1.77,0,0,1-.67-.75c-.39-.31.11-26,4.57-45.39,6.47-28.1,3.65-34.67,5.7-47.22C262.36,275.3,297.54,282.36,297.54,282.36Z"/><path class="cls-83" d="M271.41,231.4c4.29-.12,14.17-1.64,19.61,3.25.09.09-1,.68-.47,1.33a35.32,35.32,0,0,1,3.84,5.51,37.12,37.12,0,0,1,3.22,8,67.61,67.61,0,0,1,2.55,13.93c1,13.07,0,19.11-.88,23.21a45.19,45.19,0,0,1-25.82,3.79,40.29,40.29,0,0,1-12.88-4.24c3.1-9.37.67-14.38-.48-19-1.63-6.59-1.65-6.1-3-11.33-2.22-8.64-2.58-17.46-1.06-19.27C260.15,231.69,267.56,231.52,271.41,231.4Z"/><path class="cls-84" d="M290.53,387.25s-3.4-.29-3.66.41-.29,2.49,1.78,2.14S290.79,387.78,290.53,387.25Z"/><path class="cls-85" d="M283.5,226.48a7.44,7.44,0,0,0,.6-5.38c-.56-2.32-.77-2.68-1.2-3.17l-.61-.64-.08-.06a8.41,8.41,0,0,0-2.35-.78c-1.09-.06-3.31,3.86-4.59,9.9l-.3.65c-.64,1.37-1.18,2.72-1.64,4-7.39.63-8.41,1.49-8.44,2-.07,1.06,4.13,2.27,7.3,2.74,6.9,1,14-.81,14-2.1,0-.56-1.38-1.29-7.24-2.06l.42-2.9C279.8,228.59,282.52,228.13,283.5,226.48Z"/><path class="cls-86" d="M284.89,216.17a7.25,7.25,0,0,1-2.42,3.78,3,3,0,0,0-.87.55l-.16.19c-.71,1.05.77,2.91.27,3.34-.35.31-1.48-.53-1.71-.25s.65,1.19.39,1.51-.77-.18-1.29.14c-.26.16-.24.34-.63.93a6.63,6.63,0,0,1-.68.88c-.93.91-2.84.82-3.07.3-.07-.15,0-.23,0-.66a3.39,3.39,0,0,0-.13-.9,8.94,8.94,0,0,0-1.73-2.31,6.23,6.23,0,0,1-1.59-3.2c0-.14,0-.24,0-.31a7,7,0,0,1,1.39-4.54c1.57-1.79,3.62-.2,6.06-1.73,2.81-1.77,2.36-5.33,3.64-5.37S285.81,212.76,284.89,216.17Z"/><path class="cls-87" d="M281.17,223.42c-.29-.74-1.24-.37-1.46.43a1.52,1.52,0,0,0,1.14,1.89C281.64,225.78,281.55,224.42,281.17,223.42Z"/><path class="cls-88" d="M262,280.27h0a.16.16,0,0,1-.14-.18,26,26,0,0,0-1.27-10.81c-.21-.72-.4-1.4-.57-2.09-.93-3.74-1.34-5.18-1.77-6.71-.28-1-.56-2-1-3.74a.16.16,0,0,1,.11-.2.16.16,0,0,1,.2.12c.45,1.71.74,2.74,1,3.73.43,1.54.83,3,1.76,6.73.17.68.36,1.35.57,2.07a26.2,26.2,0,0,1,1.28,10.94A.16.16,0,0,1,262,280.27Z"/><path class="cls-86" d="M281.16,222l.68,1.64s.69,2,1.59,1.23c.74-.6.88-.55.9-.51a0,0,0,0,1,0,0s0-.39,0-.74a6.4,6.4,0,0,1,.38,2.16,3.56,3.56,0,0,1-.71,2.64,2.73,2.73,0,0,1-1.87.79,6.9,6.9,0,0,1-2-.74,9.59,9.59,0,0,0,2.25-1.12c.29-.82-.75-1.59-1.15-3.54A7.14,7.14,0,0,1,281.16,222Z"/><path class="cls-89" d="M328.62,254.29a8.73,8.73,0,0,1,2.82,3.5,26.1,26.1,0,0,1-9.1,11.33c-8.79,6-21.68,6.22-30.66-.64-10.73-8.2-12.52-23.91-8-30.64.52-.78,2.23-3.33,4.88-3.62,1.67-.18,3.94.51,7.54,4.72,7.49,8.77,4.84,14.25,9.27,16.81C312,259.6,321.85,249.55,328.62,254.29Z"/><path class="cls-88" d="M298.42,272.23h0c-.1,0-10.65-2.45-15.39-15.52a.16.16,0,0,1,.1-.21.16.16,0,0,1,.21.1c4.68,12.9,15.05,15.29,15.15,15.31a.16.16,0,0,1,.13.19A.17.17,0,0,1,298.42,272.23Z"/><path class="cls-90" d="M254.36,674.25s10.05,3.56,10.27,4.25-6.24.3-8.83.62-4.8-.26-4.66-1.38.81-4,.81-4Z"/><path class="cls-91" d="M254.41,670.65l-.21,4.4a3.45,3.45,0,0,1-2.57.13l-.85-4.74Z"/><path class="cls-92" d="M208.89,674.68l-1,1.9a2.17,2.17,0,0,0-.12,1.71c.53,1.47,1.56,4.33,2,5.06.56,1,6.87,1.08,6.87,1.08s.49-.84-.89-1.67-2.23-.92-2.81-2.28a36.77,36.77,0,0,1-1.23-5.29Z"/><path class="cls-93" d="M213.17,669.69c-.38.36-1.87,6.63-1.87,6.63s-.57.89-1.92-.23l-.6-.5-.29-6Z"/><path class="cls-94" d="M252.19,582.73c1.63,12.95,2.87,27,3.42,42.19.62,17,.28,32.87-.62,47.28-.79.09-1.62.17-2.5.22l-1.71.06a108.26,108.26,0,0,1-4.57-11.15,110.26,110.26,0,0,1-3.66-13.2c-3.12-14.54-1.05-16-3.5-26.79-2.17-9.53-4.11-9.75-7.52-23.26-3.71-14.66-2.1-17.05-1.29-17.93C233.68,576.4,242.66,578,252.19,582.73Z"/><path class="cls-95" d="M230.24,580.15c3.28-3.58,11.6-2.3,20.64,2-9,11.55-9.46,18.58-7.89,23,1.78,5,6,6.09,6.45,11.66.57,6.84-5.45,9.18-4.69,16.41.5,4.77,3.21,4.49,4.36,10.34,1.36,6.93-2,9.65-.39,14.72.69,2.18,2.35,5,6.62,7.62-.11,2.15-.22,4.28-.35,6.37-.79.09-1.62.17-2.5.22l-1.71.06a108.26,108.26,0,0,1-4.57-11.15,110.26,110.26,0,0,1-3.66-13.2c-3.12-14.54-1.05-16-3.5-26.79-2.17-9.53-4.11-9.75-7.52-23.26C227.82,583.42,229.43,581,230.24,580.15Z"/><path class="cls-96" d="M246,583a292.62,292.62,0,0,0-32.6,89,5.22,5.22,0,0,1-2.81.68,5.34,5.34,0,0,1-3.39-1.46,84.11,84.11,0,0,1-2.52-20.65,71.51,71.51,0,0,1,1.57-15.81c1.7-7.79,3.28-8.36,5.66-16.66,2.46-8.61,1.51-10.62,3.67-21.32A136.74,136.74,0,0,1,220.86,578Z"/><path class="cls-97" d="M279.23,562.4c.19,3-4.56,6.15-8.49,7.32-9.21,2.74-20.68-3.11-26.5-10.18-1.15-1.39-2.43-3.09-2.69-2.92-.59.36,5.87,9.12,9.24,19.44,1.73,5.28,1.63,7.83,4.28,11.21.6.76,1.33,1.55,1.19,2.53-.36,2.46-5.81,3.57-9.59,4.35a88.63,88.63,0,0,1-11.48,1.37c-6,.44-6.45.18-7.75,1-4,2.4-3.25,7.24-6.31,8.17-2.57.78-5.48-1.91-6.4-2.76-4.8-4.43-5.08-10.25-6.37-16-3-13.45-11.73-27.7-19.79-36.5-2.45-2.67-4.11-4-4.44-6.69-1-7.78,10.63-17.5,20.85-19.4a77.42,77.42,0,0,1,12.64-.86c1.91,0,3.95.1,6.15.28,5.34.46,9.06.77,12.94,2.15,15.64,5.55,13.72,21.15,30.94,30.3C273.56,558.28,279,559.22,279.23,562.4Z"/><path class="cls-98" d="M196.82,595.56c-4.08.74-13.33,1.73-20.43-3.76-11.8-9.13-8.09-28.83-5-37.43,3.52-9.86,10-15.78,13.91-19.37,4.87-4.47,7.84-7.19,11.73-7,10.05.53,18.73,20.27,13.8,26.57-1.62,2.07-3.48,1.14-8.5,3.25-1.63.68-13.83,5.79-15.19,15.22-1,6.61,3.61,13.84,11,18.31C197.67,592.77,197.25,594.17,196.82,595.56Z"/><path class="cls-99" d="M212.87,514.39a22.29,22.29,0,0,1-1.58,6.36c-1.14,2.44-6.62,3.76-7.74,4.27s2,2.27,5.11,2.72,12.23.14,13.91-1-1.26-1.17-3.49-2.1-3.33-5.4-2.85-7.39S212.87,514.39,212.87,514.39Z"/><path class="cls-100" d="M218.65,512.83c2.1-1.8,2.34-6.19,1-7.05-.38-.24-.71-.09-5.59,2.39-2.42,1.23-3.61,1.88-3.92,3a3.59,3.59,0,0,0,.27,2.31,9.27,9.27,0,0,0,1.18,1.62c.62.73.58.71.76.92a12.63,12.63,0,0,0,2.81,2.3,9.34,9.34,0,0,1,.29-1.46,7.47,7.47,0,0,1,.76-1.79A8.65,8.65,0,0,1,218.65,512.83Z"/><path class="cls-101" d="M213.27,517.46a4.67,4.67,0,0,0,4.35,1.51c2.41-.48,2-6,.34-6.92a3.08,3.08,0,0,0-2.44,0c-.48.2-.62.43-1.41.75s-1,.25-1.16.47-.38.89.31,2.42a1.35,1.35,0,0,0-1.48-.28.87.87,0,0,0-.28.36C211.24,516.45,211.92,517.17,213.27,517.46Z"/><path class="cls-102" d="M242.68,588.13c-4.92-2.54-5.88-5.46-11.27-7-7-2-10,1.6-13.58-.79-4.29-2.84-1.24-8.73-5.09-18.14-.65-1.59-5.62-13.72-14.61-14.52-4.2-.38-9.52,1.69-11.31,5.37-1.4,2.89.31,4.79-1.42,8s-4.19,2.68-6.51,5.42c-3.69,4.36-3.56,12.86.51,17.31,1.9,2.07,4.19,2.76,8.51,4a39.09,39.09,0,0,0,7.12,1.43c-5.53-4.45-8.74-10.53-7.92-16.16.85-5.88,5.91-10.08,10-12.57,5,7.67,9.31,16.68,11.26,25.36,1.29,5.79,1.57,11.61,6.37,16,.92.85,3.83,3.54,6.4,2.76,3.06-.93,2.35-5.77,6.31-8.17,1.3-.78,1.79-.52,7.75-1a88.63,88.63,0,0,0,11.48-1.37c3.36-.69,8-1.65,9.28-3.58A25,25,0,0,1,242.68,588.13Z"/><path class="cls-103" d="M266,563.1c-6.93-.93-9.64-.64-13.24-3.05-6-4-7.44-10.8-10.69-10.43-1.53.18-2.64,1.86-3.39,3.47l2.8,3.63c0-.05,0-.09,0-.1.26-.17,1.54,1.53,2.69,2.92,5.82,7.07,17.29,12.92,26.5,10.18a16.43,16.43,0,0,0,7.27-4.37A116.49,116.49,0,0,0,266,563.1Z"/><path class="cls-3" d="M186.56,609.7l-1.1-2a6.35,6.35,0,0,1,2.71-8.77L332,518.64l.6,3.56-137,90.11A6.8,6.8,0,0,1,186.56,609.7Z"/><path class="cls-104" d="M197.1,594.67l.71-2.37a4.71,4.71,0,0,0,2.66-1,3.58,3.58,0,0,1,2.15-.72c.36.07,1.66-.11.23.73s-1.36,1.37-.69,1.9a10.68,10.68,0,0,0,4,1.55c.86,0-.56,1.44-1.4,1.68a5.31,5.31,0,0,1-4.05-.29C200,595.8,197.1,594.67,197.1,594.67Z"/><path class="cls-105" d="M275.25,559.9a26,26,0,0,0,4.7-4.19c1.53-2,3.51-1.47,3.8-.51s-2.34,4-3.64,4.76S275.25,559.9,275.25,559.9Z"/><path class="cls-106" d="M331.93,520c15.12-18.14,96.16-44.45,133.65-32a93.67,93.67,0,0,1,4.84,38.7c-3.9,42.77-38,71.95-51.1,80.14-6.86,4.29-13.41,6.24-23.89,14.82-6.6,5.4-10.64,10.06-13.91,8.76-3.48-1.37-4.1-8.68-3.63-13.6,1.39-14.64,13.34-17.7,13.31-26.61,0-10.51-16.67-14.22-32.66-28.43C350.08,554.26,339.41,541.68,331.93,520Z"/><path class="cls-107" d="M344.67,525.21c-11.8,0-14-2.56-14.49-4.67-.61-2.55.7-6.82,19-14.38,12.32-5.08,29-10.25,47.11-14.55s35.32-7.22,48.61-8.22c19.72-1.49,22.81,1.73,23.41,4.29s-.69,6.82-19,14.38c-12.31,5.08-29,10.25-47.1,14.55s-35.33,7.22-48.61,8.22C350.14,525.1,347.19,525.21,344.67,525.21Zm109.07-38.57c-2.41,0-5.35.11-8.92.39-13.06,1-30,3.89-47.72,8.11s-34.15,9.28-46.26,14.25c-16.83,6.92-17.13,10.28-17.13,10.31s1.8,2.9,19.94,1.49c13.05-1,30-3.89,47.72-8.11s34.14-9.28,46.26-14.25c16.72-6.88,17.12-10.24,17.12-10.31S463.52,486.64,453.74,486.64Z"/><path class="cls-108" d="M360.48,472.77l-.18-.23-.22-.27-.47-.54c-.32-.35-.66-.69-1-1a15.63,15.63,0,0,0-2.23-1.72,10.57,10.57,0,0,0-4.82-1.67c-.21,0-.41,0-.61,0l-.6,0a9.45,9.45,0,0,0-1.19.16c-.4.06-.79.2-1.18.29s-.78.26-1.17.46a17.82,17.82,0,0,0-4.43,2.91,4.16,4.16,0,0,1-5.48-6.27,3.75,3.75,0,0,1,.51-.38l.11-.07a25.24,25.24,0,0,1,7.05-3.11,18.09,18.09,0,0,1,2-.41,19.8,19.8,0,0,1,2-.17,17.82,17.82,0,0,1,2.06.08l1,.14c.33.05.67.14,1,.22a16.17,16.17,0,0,1,6.91,3.67,20.19,20.19,0,0,1,2.55,2.69c.38.48.74,1,1.07,1.48.17.26.33.52.49.78s.15.27.23.41l.25.46a2.09,2.09,0,0,1-3.36,2.43Z"/><path class="cls-109" d="M437.9,462.08l.07-.52c0-.15,0-.31.08-.46q.07-.47.18-.9c.13-.6.3-1.18.48-1.77a20.65,20.65,0,0,1,1.43-3.42,16.34,16.34,0,0,1,5.17-5.88c.28-.18.56-.38.86-.55l.91-.5a16.4,16.4,0,0,1,1.89-.79,17.62,17.62,0,0,1,2-.57,19.61,19.61,0,0,1,2-.32,25.45,25.45,0,0,1,7.69.43l.1,0a4.17,4.17,0,1,1-1.63,8.17,4.71,4.71,0,0,1-.64-.19,17.6,17.6,0,0,0-5.18-1.15c-.43-.05-.83,0-1.25,0s-.82.06-1.2.14a11.25,11.25,0,0,0-1.18.27l-.57.2c-.19.07-.36.16-.55.24a10.44,10.44,0,0,0-3.92,3.27,15.2,15.2,0,0,0-1.48,2.39c-.21.43-.42.87-.59,1.31-.09.22-.17.45-.25.67l-.11.33c0,.1-.07.23-.09.28l-.17.41a2.1,2.1,0,0,1-4-1.09Z"/><path class="cls-110" d="M355,499.67l-.26-.13-.31-.14-.66-.28c-.44-.18-.9-.34-1.35-.48a16.06,16.06,0,0,0-2.75-.58,10.74,10.74,0,0,0-5.08.59c-.18.09-.37.15-.55.24l-.54.27a9.68,9.68,0,0,0-1,.67,11.43,11.43,0,0,0-.94.78c-.28.31-.59.57-.85.91a18,18,0,0,0-2.73,4.55,4.16,4.16,0,1,1-7.66-3.27,5.12,5.12,0,0,1,.3-.57l.07-.1a25.24,25.24,0,0,1,5-5.87c.49-.44,1.06-.82,1.6-1.22a18.24,18.24,0,0,1,1.77-1,17.51,17.51,0,0,1,1.88-.82l1-.32c.33-.1.67-.16,1-.24a16.44,16.44,0,0,1,7.82.3,20.4,20.4,0,0,1,3.47,1.33c.54.27,1.08.55,1.6.87.26.15.52.32.78.49l.39.26.42.31a2.09,2.09,0,0,1-2,3.65Z"/><path class="cls-111" d="M366.53,526.69s-.19,0-.29,0l-.34.07c-.23,0-.46.1-.69.16-.47.11-.93.25-1.38.4a16.59,16.59,0,0,0-2.57,1.15A10.46,10.46,0,0,0,357.5,532c-.11.18-.23.34-.32.52l-.27.54a8.46,8.46,0,0,0-.42,1.13,11.16,11.16,0,0,0-.31,1.17c-.05.42-.14.81-.15,1.24a17.94,17.94,0,0,0,.45,5.29,4.16,4.16,0,0,1-8.12,1.84,3.52,3.52,0,0,1-.09-.64v-.12a25.2,25.2,0,0,1,.61-7.68c.14-.65.38-1.29.58-1.93a16.37,16.37,0,0,1,.83-1.87,15.89,15.89,0,0,1,1-1.78l.61-.83c.21-.27.45-.52.67-.78a16.34,16.34,0,0,1,6.51-4.33,20.52,20.52,0,0,1,3.59-1c.6-.1,1.2-.19,1.81-.24l.92-.06h1a2.1,2.1,0,0,1,.54,4.12Z"/><path class="cls-112" d="M444.2,483.8l.24-.47c.07-.13.14-.28.22-.41s.31-.53.47-.79c.32-.52.67-1,1-1.51a20.76,20.76,0,0,1,2.49-2.75,16.29,16.29,0,0,1,6.81-3.84c.34-.08.67-.18,1-.24l1-.17a15.71,15.71,0,0,1,2.06-.12,17.32,17.32,0,0,1,2,.12,18.62,18.62,0,0,1,2,.35,25.34,25.34,0,0,1,7.12,2.95l.09.05a4.16,4.16,0,0,1-4.24,7.17,5.36,5.36,0,0,1-.55-.38,17.34,17.34,0,0,0-4.5-2.81c-.39-.19-.78-.28-1.17-.43s-.79-.22-1.19-.26a9.57,9.57,0,0,0-1.2-.13h-.6c-.2,0-.4,0-.6,0a10.41,10.41,0,0,0-4.78,1.79,15.08,15.08,0,0,0-2.19,1.76c-.34.34-.68.68-1,1-.15.18-.31.36-.45.54l-.22.28c-.06.08-.14.2-.17.23l-.3.33a2.09,2.09,0,0,1-3.42-2.35Z"/><path class="cls-113" d="M437.57,516.56l.49-.17.45-.15.88-.25c.59-.15,1.19-.28,1.79-.38a21.57,21.57,0,0,1,3.7-.3,16.5,16.5,0,0,1,7.59,1.9c.3.17.6.33.89.52l.85.57a15.56,15.56,0,0,1,1.58,1.32,18,18,0,0,1,1.41,1.49c.4.53.84,1.06,1.19,1.63a25.46,25.46,0,0,1,3.15,7l0,.1a4.16,4.16,0,0,1-8,2.29,3.74,3.74,0,0,1-.13-.65,17.74,17.74,0,0,0-1.35-5.14,10.48,10.48,0,0,0-.56-1.11,8.91,8.91,0,0,0-.68-1,9.86,9.86,0,0,0-.77-.92l-.44-.41c-.15-.14-.31-.26-.47-.39a10.52,10.52,0,0,0-4.7-2,16.12,16.12,0,0,0-2.8-.21,13.88,13.88,0,0,0-1.44.07c-.23,0-.47.05-.7.09l-.35,0-.29.05-.44,0a2.09,2.09,0,0,1-2.26-1.91A2.13,2.13,0,0,1,437.57,516.56Z"/><path class="cls-114" d="M448.8,494.39c-1.69,23.45-17.77,58.07-45.21,59-26.08.86-46.57-27.72-48.83-52.92-2.83-31.54,22.29-65.24,48.83-65,20.48.17,34.82,20.46,36.14,22.37C450.12,472.93,449.21,488.78,448.8,494.39Z"/><path class="cls-115" d="M439.73,457.8c-1.32-1.91-15.66-22.2-36.14-22.37-15.2-.13-29.94,10.87-39.22,26.23a131.91,131.91,0,0,1,34-7,115.49,115.49,0,0,1,42.56,4.9C440.52,459,440.14,458.4,439.73,457.8Z"/><path class="cls-116" d="M398.33,454.68c-3.5,14.75-10.46,51.88-5.37,97.39a35.19,35.19,0,0,0,10.63,1.29c27.44-.9,43.52-35.52,45.21-59,.39-5.39,1.24-20.24-7.91-34.81A115.49,115.49,0,0,0,398.33,454.68Z"/><path class="cls-117" d="M398.33,454.68a131.91,131.91,0,0,0-34,7c-6.93,11.44-10.82,25.31-9.61,38.78,1.94,21.66,17.35,45.81,38.2,51.63C387.87,506.56,394.83,469.43,398.33,454.68Z"/><g class="cls-118"><path class="cls-31" d="M439.73,457.8c-1.14-1.65-12-17-28.07-21.26,16.69,13.44,20.73,23.58,19.6,31.24-2.4,16.27-28.2,21.8-28.42,39.62-.18,14.35,16.43,20.18,14.82,29.33-.89,5-7.14,10.43-27.24,14.53a35.55,35.55,0,0,0,13.17,2.1c27.44-.9,43.52-35.52,45.21-59C449.21,488.78,450.12,472.93,439.73,457.8Z"/></g><path class="cls-119" d="M415.35,441c.1-2.28.28-4.5.51-6.74s.51-4.45.85-6.67.73-4.44,1.17-6.65,1-4.4,1.54-6.59A81.4,81.4,0,0,1,424,401.4l.36-.79.38-.78c.27-.51.52-1,.79-1.55.57-1,1.12-2,1.77-3s1.31-2,2-2.92a35.66,35.66,0,0,1,2.32-2.76l.61-.66c.21-.23.44-.42.66-.64l.68-.62a6.57,6.57,0,0,1,.68-.61l1.46-1.15c.25-.2.48-.35.72-.53s.48-.34.73-.5a31.19,31.19,0,0,1,6.48-3.47,14.55,14.55,0,0,1,4.07-.95,9.71,9.71,0,0,1,2.44.1,7.72,7.72,0,0,1,2.65,1,7.07,7.07,0,0,1,2.19,2.06,7.9,7.9,0,0,1,1.17,2.53,11.49,11.49,0,0,1,.22,4.7,17.39,17.39,0,0,1-1.15,4,20.64,20.64,0,0,1-1.94,3.55,21,21,0,0,1-2.57,3.08,19.22,19.22,0,0,1-1.49,1.36l-.39.32-.38.28c-.24.19-.5.38-.77.57a18.07,18.07,0,0,1-1.71,1.11,11.68,11.68,0,0,1-2.25,1,7.63,7.63,0,0,1-.76.2l-.43.08-.49.05a5.75,5.75,0,0,1-2.46-.33,5.45,5.45,0,0,1-1.35-.75,5.28,5.28,0,0,1-1.06-1.05,6,6,0,0,1-1-2,7.59,7.59,0,0,1-.3-1.58,9.7,9.7,0,0,1,0-1.29,16.1,16.1,0,0,1,.19-2.19c.1-.68.22-1.33.37-2,.07-.32.15-.63.23-.94l.13-.48.07-.24.09-.28v0a4.15,4.15,0,0,1,7.93,2.45l-.1.28a1,1,0,0,0,0,.11l-.06.16-.11.32c-.07.22-.14.44-.2.66-.13.45-.24.89-.32,1.3a7.86,7.86,0,0,0-.17,1.12c0,.3,0,.55,0,.43a2.11,2.11,0,0,0-.31-.53,2.06,2.06,0,0,0-.47-.46,2.51,2.51,0,0,0-.64-.35,1.85,1.85,0,0,0-.82-.12h-.06l0,0h.05a3.66,3.66,0,0,0,.8-.31,11.17,11.17,0,0,0,1.12-.64c.2-.12.39-.25.59-.39l.3-.2.27-.19c.35-.26.69-.53,1-.83a13.72,13.72,0,0,0,1.8-1.93,13.37,13.37,0,0,0,1.38-2.21,10,10,0,0,0,.81-2.31,5.12,5.12,0,0,0,.09-1.91,1.71,1.71,0,0,0-.16-.5.76.76,0,0,0-.18-.24,1.3,1.3,0,0,0-.44-.2,3.1,3.1,0,0,0-.87-.09,9,9,0,0,0-2.42.44,25.82,25.82,0,0,0-5.37,2.54c-.23.13-.45.27-.67.41s-.46.28-.65.42l-1.2.85c-.21.13-.39.31-.59.46l-.57.48c-.19.17-.39.31-.57.49l-.54.53c-.75.68-1.41,1.46-2.1,2.22s-1.31,1.6-1.89,2.48-1.17,1.74-1.73,2.63c-.28.45-.53.92-.8,1.38l-.4.69-.36.71a76.63,76.63,0,0,0-5,12c-.66,2.08-1.28,4.17-1.83,6.29s-1.05,4.25-1.49,6.4-.84,4.31-1.19,6.48-.64,4.37-.85,6.52v0a1.25,1.25,0,0,1-2.49-.17Z"/><path class="cls-120" d="M383.51,443.21c-.21-2.15-.51-4.35-.85-6.51s-.74-4.33-1.19-6.48-1-4.28-1.49-6.4-1.17-4.21-1.83-6.29a77.61,77.61,0,0,0-4.95-11.95l-.37-.72-.39-.69c-.27-.46-.52-.92-.8-1.37-.57-.89-1.11-1.8-1.73-2.64s-1.26-1.66-1.89-2.47-1.36-1.55-2.1-2.23l-.54-.52c-.18-.18-.39-.33-.57-.49l-.58-.48a6.61,6.61,0,0,0-.58-.47l-1.21-.84c-.19-.15-.43-.28-.64-.42l-.67-.41a25.32,25.32,0,0,0-5.37-2.54,8.64,8.64,0,0,0-2.42-.44,3.1,3.1,0,0,0-.87.08,1,1,0,0,0-.44.21.55.55,0,0,0-.18.24,1.71,1.71,0,0,0-.16.5,5.1,5.1,0,0,0,.08,1.91,10,10,0,0,0,.82,2.31,12.89,12.89,0,0,0,1.38,2.21,13.72,13.72,0,0,0,1.8,1.93,11.43,11.43,0,0,0,1,.82l.27.2.29.2c.2.14.4.26.6.39a11.17,11.17,0,0,0,1.12.64,3.46,3.46,0,0,0,.79.31h0a1.86,1.86,0,0,0-.82.12,2.46,2.46,0,0,0-1.1.8,2.08,2.08,0,0,0-.31.54c0,.11,0-.14,0-.44a9.48,9.48,0,0,0-.17-1.11c-.09-.42-.2-.86-.32-1.3l-.21-.66-.11-.33-.05-.15a.82.82,0,0,1,0-.11,4.15,4.15,0,1,1,7.73-3c0,.09.07.18.1.27v0l.09.29.07.24.13.47c.08.32.16.63.23.95.14.63.27,1.28.37,2a17.87,17.87,0,0,1,.19,2.19c0,.4,0,.82-.05,1.29a8.22,8.22,0,0,1-.3,1.57,6.29,6.29,0,0,1-1,2,5.79,5.79,0,0,1-1,1.05,5.51,5.51,0,0,1-1.36.75,5.87,5.87,0,0,1-2.46.33l-.48-.05-.44-.08c-.26-.06-.53-.13-.75-.2a10.83,10.83,0,0,1-2.25-1c-.63-.36-1.19-.73-1.72-1.1l-.77-.57-.37-.29-.39-.32a19,19,0,0,1-1.5-1.35,20.93,20.93,0,0,1-2.56-3.08,20,20,0,0,1-1.94-3.55,16.41,16.41,0,0,1-1.15-4,11.61,11.61,0,0,1,.21-4.69,8.12,8.12,0,0,1,1.17-2.53,7,7,0,0,1,2.2-2.06,7.65,7.65,0,0,1,2.65-1,10.21,10.21,0,0,1,2.44-.11,15,15,0,0,1,4.07.95,31.47,31.47,0,0,1,6.48,3.48l.72.5c.24.18.48.32.73.52l1.45,1.15c.25.19.46.41.69.62l.67.62c.22.21.46.41.66.63l.62.67c.85.87,1.57,1.82,2.32,2.75s1.4,1.92,2,2.93,1.19,2,1.76,3c.28.51.53,1,.79,1.55l.39.78.36.79a82.3,82.3,0,0,1,4.54,12.89q.85,3.29,1.53,6.6t1.18,6.64c.34,2.22.61,4.45.85,6.68s.41,4.45.51,6.73a1.25,1.25,0,0,1-2.5.18Z"/><path class="cls-56" d="M465.58,488c-7.82,29.85-19.22,40-29,43.24-16.45,5.42-30.77-7.92-45.05,1.21-7.62,4.87-13.47,15-12.7,24.49,1.55,19.06,29.11,26.16,26.61,37.5-1.63,7.41-13.83,6.26-21.17,19.66-3.57,6.51-5.1,14.84-2.72,16.32,2.07,1.3,6.57-2.76,13.91-8.76,10.48-8.58,17-10.53,23.89-14.82,13.07-8.19,47.2-37.37,51.1-80.14A93.67,93.67,0,0,0,465.58,488Z"/><path class="cls-121" d="M468.28,487.68c-.38-1.62-1.77-3.51-7.75-4.3-1.46,1.14-2.94,2.24-4.46,3.3,7.64.26,8.66,1.79,8.68,1.84s-.4,3.43-17.12,10.31c-12.12,5-28.55,10-46.26,14.25s-34.67,7.1-47.72,8.11c-18.14,1.41-19.93-1.46-19.94-1.49s.19-2.16,8.79-6.53c-1.47-.54-2.93-1.13-4.35-1.8-7.82,4.43-8.42,7.28-8,9.17.5,2.11,2.69,4.67,14.49,4.67,2.52,0,5.47-.11,8.93-.38,13.28-1,30.54-3.92,48.61-8.22s34.79-9.47,47.1-14.55C467.59,494.5,468.89,490.23,468.28,487.68Z"/><path class="cls-122" d="M549.28,468.67s-1.67-1.1-1.68-2.21-1.16-5-1.71-5-.54,2.22,0,2.77,0,1.11-.54,1.12-2.79-1.64-4.48-3.29,0,1.11.58,2.21,1.14,3.33,2.26,3.87a25.16,25.16,0,0,0,2.78,1.09l1.68,1.09Z"/><path class="cls-123" d="M560.66,439.87c-.71-1.19-1.31-2.16-1.75-2.85a.18.18,0,0,0-.32.16l1.06,2.69s-3.54-6.07-3.54-5.06,2,4.05,2,4.05-4.56-5.06-4.56-4.05,3,4.55,3,4.55-3-2-4-2,2,2.53,3.54,4.05,1.78,2.11,1.66,2.32c-.34.62-2.87-.26-3,0s1.05.76,2.31,1.21a34,34,0,0,0,4.56,1l2-1Z"/><path class="cls-86" d="M662.66,631a1.88,1.88,0,0,1,.44,1.07,2,2,0,0,1-.13.71c-.4,1-1,1.17-1.68,2.26-.4.67-.33.87-.7,1.17a2.45,2.45,0,0,1-1.6.43,28,28,0,0,1-3.69-.21c.83-1.06,1.7-2.14,2.64-3.23.41-.48.81-1,1.22-1.41l2.43-.82Z"/><path class="cls-124" d="M660.64,619.21s-1.38,7.24.38,9.27c1.5,2-.72.58-.72.58l-2.67,2.32L656,634.14s1.47-7.08,1.07-9.89-.58-4.71-.58-4.71Z"/><path class="cls-125" d="M660.27,627.46c.66,0,1.14.53,1.5,1.79s2.11,2.37.07,2.11-3.51,2.61-4.23,3.67-2.68,2-2.63,1,.91-1.53,1.15-2.6S658.77,627.44,660.27,627.46Z"/><path class="cls-126" d="M644,524c1,.38,3.2,1.58,7.22,18.88,2.58,11.11,2.38,13.74,4.44,20.55,2.76,9.13,5.67,12.82,7.78,17.77,3.34,7.84,5.31,20.27-1.67,40l-5.55,2.22a103.16,103.16,0,0,0-1.67-23.33,131.6,131.6,0,0,0-18.33-45.54c-6.06-8.77-10.32-12.06-9.44-17.77C628,528.81,638.27,521.73,644,524Z"/><g class="cls-58"><path class="cls-127" d="M659.5,604.49c-1.24-11.22,1.57-13.62-.56-22.21-3.16-12.82-11.16-14.55-12.77-25-.65-4.23-.3-10.25,4.11-18.13-3.46-13.78-5.44-14.84-6.33-15.19-5.68-2.24-16,4.84-17.22,12.77-.88,5.71,3.38,9,9.44,17.77a131.6,131.6,0,0,1,18.33,45.54,103.16,103.16,0,0,1,1.67,23.33l5.55-2.22c.33-.94.64-1.85.93-2.75A63.75,63.75,0,0,1,659.5,604.49Z"/></g><path class="cls-86" d="M647.47,634.36a2.15,2.15,0,0,1,.52,1.26,2,2,0,0,1-.16.85c-.47,1.23-1.2,1.39-2,2.7-.48.79-.39,1-.84,1.39a2.88,2.88,0,0,1-1.9.51,33.14,33.14,0,0,1-4.4-.25c1-1.26,2-2.55,3.14-3.85l1.46-1.67,2.89-1Z"/><path class="cls-128" d="M645.07,620.32s-1.66,8.62.45,11c1.79,2.41-.87.69-.87.69l-3.17,2.77-1.9,3.29s1.75-8.44,1.28-11.79-.7-5.61-.7-5.61Z"/><path class="cls-125" d="M644.62,630.15c.78,0,1.36.63,1.79,2.13s2.51,2.83.09,2.51-4.18,3.11-5,4.38-3.19,2.4-3.13,1.16,1.08-1.82,1.37-3.09S642.84,630.12,644.62,630.15Z"/><path class="cls-129" d="M614,542.85a348.92,348.92,0,0,1,25,82.75,12,12,0,0,0,3.89.55,11.77,11.77,0,0,0,3.33-.55,78.35,78.35,0,0,0,1.11-28.33c-1.47-9.93-3.49-9.67-5.55-20-3.49-17.4,1.09-23.92-3.33-42.76-2.74-11.66-5.3-12.58-6.11-12.78C626,520.23,617.09,536.73,614,542.85Z"/><path class="cls-130" d="M562.78,443.29l-2,3a72.4,72.4,0,0,1,23.34,18.15c9.55,11.4,12,22,18.21,22.15,2.89.07,7.17-2.11,12.61-13.39a72.79,72.79,0,0,0-52.2-29.88Z"/><path class="cls-131" d="M606.74,474.54c-9,7.87-13.49,11.81-15,12.22-5.43,1.47-9-4-19.43-10A79.56,79.56,0,0,0,549,467.87l-2.22,3.34a119,119,0,0,0,13.33,15c11.54,11,15.88,10.62,25.55,19.44,4.1,3.74,15.8,14.64,22.21,31.66,5,13.35,4.33,23.88,8.33,24.43,2.43.34,3.3-3.46,10.55-11.11,5.26-5.54,9.91-10.44,17.22-13.88,3.81-1.79,6.61-2.38,11.11-5.55,3.68-2.6,6.78-4.79,6.66-7.22-.21-4.34-10.36-3.5-19.44-10.56-5.59-4.34-4.17-6.55-17.77-28.32-5.14-8.22-9-13.79-13.33-13.33C609.71,471.92,608.83,472.71,606.74,474.54Z"/><path class="cls-132" d="M593.69,479.26l2.22,5.55s5-2.77,6.11-5l-5-3.88Z"/><path class="cls-133" d="M591.46,472.41c-2-2.6-1.12-7.69.62-8.35.5-.18.84.08,5.82,4.15,2.47,2,3.67,3.07,3.73,4.46a4.11,4.11,0,0,1-.89,2.58,10.44,10.44,0,0,1-1.76,1.57c-.89.68-.84.67-1.11.86a14.28,14.28,0,0,1-3.81,1.94,9.73,9.73,0,0,0,.05-1.76,8.9,8.9,0,0,0-.43-2.24A10,10,0,0,0,591.46,472.41Z"/><path class="cls-134" d="M596.47,479.08a5.49,5.49,0,0,1-5.38.64c-2.64-1.16-.83-7.37,1.37-8a3.63,3.63,0,0,1,2.79.62c.5.36.61.66,1.43,1.23s1,.51,1.21.82.22,1.12-1,2.7a1.56,1.56,0,0,1,1.76.06,1,1,0,0,1,.24.48C599.05,478.43,598.1,479.09,596.47,479.08Z"/><path class="cls-135" d="M644.5,527.85c-12.82,4.46-17.34,16.21-22.77,14.44-6.59-2.15-.7-19.73-11.66-28.88-6.31-5.26-11.46-2.1-18.33-8.88-5.75-5.68-3.9-9.64-9.44-14.44-6.06-5.26-11.8-3.56-19.43-6.11a31.16,31.16,0,0,1-11.7-7.23,116.87,116.87,0,0,0,8.92,9.45c11.54,11,15.88,10.62,25.55,19.44,4.1,3.74,15.8,14.64,22.21,31.66,5,13.35,4.33,23.88,8.33,24.43,2.43.34,3.3-3.46,10.55-11.11,5.26-5.54,9.91-10.44,17.22-13.88,3.81-1.79,6.61-2.38,11.11-5.55a31.75,31.75,0,0,0,5.5-4.47A32.7,32.7,0,0,0,644.5,527.85Z"/><path class="cls-136" d="M853.85,472.84s-2.26-1.13-2.82-2.25-2.82-2.26-3.94-3.38a12,12,0,0,1-1.78-2.86.44.44,0,0,1,.58-.6,23.9,23.9,0,0,0,3.45,1.2c2.25.57,3.38,4.51,3.38,4.51l2.25,2.82Z"/><path class="cls-137" d="M854.41,470.59l-2.25,1.69c1.45,3.87,3.66,9.37,6.76,15.77,9.24,19.1,19.28,40,32.11,40,6.32,0,12.9-5.1,13.52-10.14.7-5.7-6.29-10.64-12.39-15.21A415.9,415.9,0,0,1,854.41,470.59Z"/><path class="cls-138" d="M837.77,564.79a.82.82,0,0,1-.58-.24c-12.28-12-17.59-22.73-15.78-31.86,1.37-6.93,6.32-11,11.56-15.22,5-4.06,10.17-8.26,13.49-15.51,4.43-9.7,4-21.68-1.37-35.62L694.73,269.92l-146.83-113a15.86,15.86,0,0,0-5-2.53,10.53,10.53,0,0,1-6.29-4.83.83.83,0,1,1,1.44-.83,8.87,8.87,0,0,0,5.34,4.07,17.26,17.26,0,0,1,5.53,2.8l147,113.19L846.56,465.52l0,.11c5.55,14.42,6,26.88,1.37,37-3.47,7.61-9,12.13-13.94,16.12-5.23,4.24-9.73,7.9-11,14.24-1.69,8.55,3.46,18.75,15.32,30.35a.85.85,0,0,1,0,1.18A.86.86,0,0,1,837.77,564.79Z"/><path class="cls-139" d="M837.35,627.35s-7.74,1.88-9.37,2.63,4.48,1.13,7.33,1.5,3.26,0,3.26,0a17.39,17.39,0,0,1,1.63-2.25C841.08,628.14,837.35,627.35,837.35,627.35Z"/><path class="cls-140" d="M841.42,624.1l-4.33,3.9a2.15,2.15,0,0,0,2.16,1.29l4.77-3.46Z"/><path class="cls-141" d="M899.48,561.29A41.71,41.71,0,0,1,895,574.81c-7.68,14.14-18,12.49-28.17,27.6-4.22,6.29-5,10.4-11.26,16.34a46.9,46.9,0,0,1-11.27,7.88l-5.07-2.81c2.52-4,6.54-10.48,11.27-18.59,14.79-25.36,17.76-34.4,28.17-40C882.62,563.08,889.28,560.59,899.48,561.29Z"/><g class="cls-58"><path class="cls-142" d="M861.17,596.78C867.22,589.54,872,591,879.76,585c5.18-4,11.19-10.94,15-23.76a35.31,35.31,0,0,0-16.15,4c-10.41,5.6-13.38,14.64-28.17,40-4.73,8.11-8.75,14.58-11.27,18.59l.17.09a24.74,24.74,0,0,0,9.41-5.16C856.12,612.16,854.24,605.06,861.17,596.78Z"/></g><path class="cls-143" d="M847.65,475.66s-1.13-1.13-1.13-4-2.81-6.76-3.38-7.32-.56,3.94-.56,5.63,3.94,6.76,3.94,6.76Z"/><path class="cls-144" d="M802.53,627.65s-7.75,1.88-9.37,2.63,4.48,1.13,7.33,1.51,3.26,0,3.26,0a16.9,16.9,0,0,1,1.63-2.26C806.26,628.44,802.53,627.65,802.53,627.65Z"/><path class="cls-145" d="M806.59,624.4l-4.33,3.9a2.17,2.17,0,0,0,2.17,1.3l4.76-3.47Z"/><path class="cls-146" d="M863.49,554.72C848,571.48,832.35,589.82,817,609.87q-6.32,8.21-12.22,16.35l4,.94a58.57,58.57,0,0,0,20.87-12.23c8.11-7.5,7.29-11.32,15.49-18.76C854.75,587.4,860,589,869.21,581a53.91,53.91,0,0,0,14.29-20.39Z"/><path class="cls-147" d="M898.73,489.06s-4.45,3.53-6,6.68,2.18,4.52,2.18,4.52l-1,2a4.82,4.82,0,0,1-4.56,2.58l-1.66-.1c1.14.72,2.89,1.76,5.08,2.88,4,2.07,8.85,4,9.29,3.27.32-.53-2-1.73-2.72-4.65a7.8,7.8,0,0,1-.1-3.23l.29-.91S905.5,492.73,898.73,489.06Z"/><path class="cls-148" d="M897.23,493.12c-1.22-1.42-1.56-3.93-.57-5.07.51-.59,1.55-1,4-.56,6,1.1,9.76,5.6,12.95,7.88,5.53,3.94,11.1,2.43,20.28,2.26,2.83-.06,24.63,0,43.38,9.57,6.53,3.32,17.17,8.73,19.72,19.72,1.64,7.07.1,17.17-6.2,21.41-8.49,5.71-19.72-3.23-25.91,2.81-4.05,4-.56,9.08-4.51,13.53-5.45,6.14-20.55,5.92-29.86-1.13-10.66-8.08-3.71-17.53-16.9-36.06-4.65-6.53-8-14-12.95-20.28-.17-.21-5.9-7.47-4-10.14.68-.92,2.31-1.33,2.26-2.25C898.87,494.15,898,494,897.23,493.12Z"/><path class="cls-149" d="M848.21,474l-2.81,1.69c1,12,4.94,19.49,8.45,24.22,7.07,9.53,14.84,10.87,15.77,18.59.56,4.65-2.13,5.22-6.2,18C861,544,859.78,548,860,553.4c.15,2.84.6,12,6.76,17.46,2.49,2.21,5.09,3.08,22,4.51,19.47,1.64,22.28,1,27.6,3.94,6.69,3.69,10,9,11.83,7.89,2-1.25-.71-9-1.13-10.14-3.91-11.11-9.89-13.53-15.77-24.79a53.36,53.36,0,0,1-5.07-13.52c-2.92-13.09,1.36-18.61-2.25-25.35-3.44-6.41-10.62-7.92-17.47-10.14C876.61,500.05,863.06,492.66,848.21,474Z"/><path class="cls-150" d="M922.58,575.93c-4.48-3.51-8.09-1.68-13-5.63-6.19-5-3.59-10.57-8.45-15.77-8.12-8.69-22.61-1-26.48-7.33-4.08-6.7,11-17.14,7.33-30.42-1.76-6.34-7-10.48-10.15-13-8.33-6.57-14.36-5-20.84-11.26a23.21,23.21,0,0,1-2.75-3.17,40.32,40.32,0,0,0,5.57,10.49c7.07,9.53,14.84,10.87,15.77,18.59.56,4.65-2.13,5.22-6.2,18C861,544,859.78,548,860,553.4c.15,2.84.6,12,6.76,17.46,2.49,2.21,5.09,3.08,22,4.51,19.47,1.64,22.28,1,27.6,3.94,6.69,3.69,10,9,11.83,7.89a1,1,0,0,0,.34-.34C927.31,580.82,924.82,577.69,922.58,575.93Z"/><path class="cls-151" d="M695,270.44a.83.83,0,0,1-.79-.59l-56-183.56a1.55,1.55,0,0,0-1.25-1.1l-.16,0-2.07-.82a.82.82,0,0,1-.47-1.07.84.84,0,0,1,1.08-.48l2,.79a3.24,3.24,0,0,1,2.48,2.23l56,183.56a.83.83,0,0,1-.55,1A.73.73,0,0,1,695,270.44Z"/></g></g></g></svg>